<?xml version="1.0" encoding="UTF-8"?>
<svg id="Layer_1" data-name="Layer 1" xmlns="http://www.w3.org/2000/svg" viewBox="0 0 250 250">
  <defs>
    <style>
      .cls-1 {
        fill: #ff61f6;
      }

      .cls-2 {
        fill: #470137;
      }
    </style>
  </defs>
  <rect class="cls-1" x="22.48" y="39.25" width="209.36" height="163.91"/>
  <g>
    <path class="cls-2" d="M179.55,111.42c-3.69,.49-12.11,3.92-16.52,12.31-4.54,8.65-2.98,19.09,2.3,25.87,3.02,3.88,8.25,7.84,13.28,8.34,.92,.09,3,.19,5.19,.17,2.88-.02,5.25-.24,6.89-.43-.03-15.43-.06-30.86-.08-46.3-1.32-.15-3.24-.31-5.57-.3-2.98,.01-5.21,.3-5.48,.33Z"/>
    <path class="cls-2" d="M207.94,.06H41.98C18.79,.06,0,18.86,0,42.04V208C0,231.19,18.79,249.98,41.98,249.98H207.94c23.18,0,41.98-18.79,41.98-41.98V42.04C249.92,18.86,231.13,.06,207.94,.06ZM106.44,175.81c-6.98-13.45-13.96-26.89-20.94-40.34-7.43,13.45-14.87,26.89-22.3,40.34l-27.23,.68c11.35-18.33,22.7-36.65,34.04-54.98l-31.66-54.98h27.57l20.94,40.51,21.11-40.51h25.19c-10.38,17.82-20.77,35.63-31.15,53.45,11.06,18.61,22.13,37.22,33.19,55.83h-28.77Zm107.6-4.26c-3.37,1.67-8.18,3.73-14.19,5.23-4.26,1.07-12.96,3.15-23.49,1.82-6.33-.8-19.23-2.44-29.1-13.18-10.63-11.56-10.59-25.87-10.51-29.97,.06-2.99,.67-19.96,13.96-31.99,6.06-5.49,12.22-7.65,16.83-9.21,8.13-2.76,15.91-3.44,22.68-3.16V56.34h23.83v115.21Z"/>
  </g>
</svg>