<?xml version="1.0" encoding="UTF-8"?>
<svg id="Layer_1" data-name="Layer 1" xmlns="http://www.w3.org/2000/svg" viewBox="0 0 250 250">
  <defs>
    <style>
      .cls-1 {
        fill: #fff;
      }

      .cls-2 {
        fill: #3a3a3a;
      }
    </style>
  </defs>
  <circle class="cls-2" cx="125" cy="125" r="125"/>
  <path class="cls-1" d="M166.79,94.06h-17.89c-1.56,0-1.46,.21-1.46-1.46v-8.74c0-1.35,0-1.25,1.25-1.25h37.02c.1,0,.21,.1,.31,.21v10.71c0,.31-.21,.42-.42,.42-.56,0-.84,.05-1.04,0-.43-.1-5.05-.11-17.78,.1Z"/>
  <path class="cls-1" d="M127.27,134.31c-.52-2.18-1.35-4.26-2.39-6.24-.73-1.25-1.46-2.5-2.39-3.54-.62-.69-1.86-2.07-3.92-3.23-.87-.49-3.14-1.73-6.17-1.76-.09,0-.16,0-.21,0l.1-.1c.1-.03,.26-.08,.47-.14,1.93-.61,4.8-1.55,7.23-3.91,.72-.7,1.18-1.31,1.47-1.69,.95-1.27,1.71-2.68,2.27-4.23,.62-1.66,.94-3.43,.94-5.3,0-1.98,0-3.85-.21-5.82-.1-1.66-.42-3.22-.94-4.89-.86-2.74-2.09-5.16-3.71-7.29-.56-.73-2.19-2.77-4.82-4.67-4.89-3.53-10.08-4.29-12.79-4.47H49.68c-.21,0-.31,.1-.31,.31v46.38c.15,31.09,.21,44.44,.21,44.93v1.56s0,.05,.02,.06c.02,.02,.05,.03,.08,.04h52.52c1.77-.1,3.43-.31,5.1-.73,2.7-.62,5.3-1.56,7.8-2.91,5.51-3.02,9.26-7.49,11.44-13.31,1.04-2.6,1.46-5.3,1.66-8.11,.31-3.74,0-7.38-.94-10.92Zm-56.12-40.31c.25-.25,.7-.21,1-.14l12.48-.21h12.06c1.04,0,1.98,0,2.91,.31,1.56,.42,2.81,1.35,3.64,2.7,.42,.62,.73,1.35,.94,2.08,.43,1.52,.56,2.73,.62,3.74,.09,1.5,0,2.6-.21,4.78-.02,.26-.07,.7-.18,1.25,0,0-.14,.67-.34,1.25-.68,1.98-2.19,3.25-2.19,3.25-1.34,1.14-2.74,1.51-3.64,1.64-.73,.1-1.35,.21-2.08,.21h-24.75c-.21,0-.42-.21-.42-.31v-19.55c0-.17-.15-.71,.14-1Zm36.15,53c-.94,3.54-3.33,5.82-6.86,6.86-1.14,.31-2.29,.42-3.43,.42h-25.27c-.62,0-.73,0-.73-.73v-24.13c0-.1,.1-.21,.21-.31h6.03c1.5,0,3.9-.02,7.9-.1h11.96c1.46,0,2.91,.1,4.37,.73,2.5,.94,4.26,2.6,5.2,5.1,.52,1.14,.73,2.29,.83,3.54,.21,1.77,.21,3.64,.21,5.41,0,1.04-.21,2.18-.42,3.22Z"/>
  <path class="cls-1" d="M200.28,130.25c-.42-2.81-.94-5.51-1.87-8.22-1.14-3.33-2.7-6.55-4.78-9.36-3.22-4.37-7.28-7.49-12.27-9.36-3.22-1.25-6.55-1.87-9.88-2.08-3.22-.21-6.45-.1-9.67,.31-2.18,.21-4.26,.62-6.24,1.25-8.42,2.6-14.87,7.59-19.14,15.18-2.7,4.89-4.16,10.09-4.78,15.6-.21,1.66-.21,3.43-.21,5.1,0,2.29,.21,4.58,.62,6.86,.42,2.7,1.14,5.2,2.18,7.7,2.6,6.24,6.76,11.13,12.58,14.56,2.91,1.77,6.14,3.02,9.46,3.85,3.33,.83,6.66,1.25,10.09,1.35h3.95c2.18,0,4.47-.21,6.66-.62,4.06-.62,7.8-2.08,11.34-4.06,.52-.31,1.04-.62,1.46-.94,3.74-2.5,6.45-5.82,8.01-10.09,1.04-2.7,1.46-5.62,1.46-8.53q0-.94-.94-.94h-14.46c-.94,0-.83,0-1.04,.83-.1,.21-.1,.42-.1,.62-.31,1.14-.83,2.29-1.46,3.33-.7,1.13-1.56,2.06-2.58,2.79-1.17,.83-2.21,1.16-3.25,1.48-3.36,1.02-6.35,.81-8.74,.62-1.08-.09-1.7-.14-2.6-.31-1.16-.23-3.95-.82-6.76-2.91-4.06-3.02-5.82-7.07-5.82-12.06,0-.62,.21-.73,.73-.73h23.71c15.98,.23,22.13,.31,22.57,.31h1.46c.21,0,.31-.1,.31-.21v-.42c.21-1.35,.31-2.6,.31-3.95,.1-2.29,0-4.68-.31-6.97Zm-18.3-1.35s0,.1-.1,.1h-1.25c-.36,0-3.82-.08-13.73-.31h-14.66c-.21,0-.31-.21-.31-.31v-.42c.52-2.91,1.66-5.62,3.64-7.9,2.08-2.5,4.78-4.16,7.9-4.89,1.04-.31,2.08-.42,3.22-.42,1.87,0,3.64,0,5.51,.62,4.16,1.14,7.07,3.74,8.74,7.8,.62,1.56,.94,3.33,1.04,4.99v.73Z"/>
</svg>