<?xml version="1.0" encoding="UTF-8"?>
<svg id="Layer_1" data-name="Layer 1" xmlns="http://www.w3.org/2000/svg" viewBox="0 0 19.81 20">
  <defs>
    <style>
      .cls-1, .cls-2 {
        fill: #fff;
      }

      .cls-3 {
        fill: #cacaca;
      }

      .cls-4 {
        fill: #c7c7c7;
      }

      .cls-5 {
        fill: #c3c3c3;
      }

      .cls-6 {
        fill: #3a3a3a;
      }

      .cls-7 {
        fill: #878787;
      }

      .cls-8 {
        fill: #858585;
      }

      .cls-9 {
        fill: #c1c1c1;
      }

      .cls-10 {
        fill: #ccc;
      }

      .cls-2 {
        opacity: .59;
      }

      .cls-11 {
        fill: #6e6e6e;
      }

      .cls-12 {
        fill: #b9b9b9;
      }
    </style>
  </defs>
  <circle class="cls-2" cx="9.92" cy="10" r="9.88"/>
  <path class="cls-6" d="M19.81,9.37v1.27s0,.09,0,.13c0,.69-.12,1.36-.32,2.02-.16,.57-.38,1.12-.64,1.64-.35,.71-.78,1.37-1.3,1.97-.72,.85-1.56,1.57-2.52,2.14-1.13,.67-2.34,1.11-3.64,1.3-.18,.03-.36,.03-.54,.03-.1,0-.2,.02-.3,.01h-.12c-.05,0-.1-.01-.15,0h-.65c-.06-.02-.11,0-.17,0h-.14c-.78,0-1.53-.14-2.27-.36-.6-.18-1.17-.42-1.73-.71-.66-.35-1.28-.77-1.85-1.26-.75-.65-1.39-1.38-1.93-2.21-.53-.83-.93-1.71-1.19-2.66-.13-.46-.23-.94-.28-1.41-.03-.26-.03-.52-.04-.78,0-.08,0-.16-.02-.23v-.53c.04-.19,.02-.37,.02-.56,.02-.45,.09-.89,.18-1.32,.18-.81,.45-1.58,.82-2.31,.38-.75,.84-1.44,1.4-2.07,.57-.66,1.22-1.23,1.94-1.72,.67-.45,1.39-.82,2.15-1.1,.64-.23,1.29-.4,1.97-.49,.19-.03,.38-.03,.57-.04,.11,0,.22-.02,.33-.01h.14c.06,0,.13,.01,.19,0h.49c.08,.02,.16,0,.24,0,1.08,0,2.11,.24,3.12,.63,1.06,.41,2.01,.99,2.87,1.74,.69,.6,1.29,1.28,1.8,2.04,.45,.68,.82,1.41,1.09,2.19,.19,.55,.34,1.11,.43,1.68,.04,.28,.05,.57,.05,.86,0,.04-.01,.09,0,.13Z"/>
  <path class="cls-12" d="M10.46,0s0,.01,0,.02c-.07,0-.14,0-.21,0-.02,0-.03,0-.04-.01,.08,0,.17,0,.25,0Z"/>
  <path class="cls-7" d="M9.71,0c-.06,.02-.13,.02-.19,.02,0,0,0,0-.01-.01,0,0,.01,0,.02,0h.19Z"/>
  <path class="cls-11" d="M9.44,19.98c.06,0,.12,0,.18,.02h-.17s-.01,0-.02,0c0,0,0,0,.01-.01Z"/>
  <path class="cls-10" d="M9.52,0s0,.01,0,.02c-.05,0-.1,0-.15,0,0,0,0-.01,0-.02h.15Z"/>
  <path class="cls-4" d="M9.44,19.98s0,.01,0,.02h-.15s0-.01,0-.02c.05,0,.1,0,.15,0Z"/>
  <path class="cls-8" d="M10.27,20c.05-.02,.1-.02,.16-.02,0,0,0,0,.01,.01,0,0-.01,0-.02,0h-.15Z"/>
  <path class="cls-9" d="M19.79,9.24s.01,0,.02,0v.13s-.02-.09-.02-.13Z"/>
  <path class="cls-5" d="M19.81,10.78s-.01,0-.02,0c0-.05,0-.09,.02-.13v.13Z"/>
  <path class="cls-3" d="M10.42,20s0-.01,0-.02c.04,0,.09,0,.13,0,0,0,0,.01,0,.02h-.13Z"/>
  <path class="cls-1" d="M2.71,9.87c0-1.45,0-2.9,0-4.34,0-.04,0-.08,0-.12,0-.02,.01-.03,.03-.03,.01,0,.03,0,.04,0,.03,0,.06,0,.09,0,1.56,0,3.12,0,4.69,0,.08,0,.15,0,.23,0,.45,.04,.86,.17,1.23,.43,.4,.29,.67,.67,.82,1.15,.05,.16,.08,.31,.09,.47,.02,.19,.02,.37,.02,.56,0,.18-.03,.35-.09,.51-.08,.22-.2,.41-.36,.57-.18,.18-.4,.3-.65,.37-.03,0-.06,.01-.09,.02,0,0,0,0-.01,.01,0,0,.01,0,.02,0,.02,0,.05,0,.08,.01,.36,.04,.66,.2,.89,.47,.09,.1,.16,.22,.23,.34,.1,.19,.18,.39,.23,.6,.09,.34,.12,.69,.09,1.05-.02,.27-.06,.53-.16,.78-.21,.56-.57,.99-1.1,1.28-.24,.13-.49,.22-.75,.28-.16,.04-.32,.06-.49,.07-.07,0-.13,0-.2,0-.47,0-.93,0-1.4,0-1.04,0-2.08,0-3.13,0-.09,0-.17,0-.26,0-.02,0-.04,0-.06,0,0,0-.01,0-.01-.01,0,0,0-.02,0-.03,0-.04,0-.08,0-.12,0-1.44,0-2.89,0-4.33Z"/>
  <path class="cls-1" d="M14.88,11.58c-.73,0-1.45,0-2.18,0-.03,0-.06,0-.1,0-.05,0-.07,.01-.07,.07,0,.48,.17,.87,.56,1.16,.19,.15,.41,.24,.65,.28,.08,.02,.16,.03,.25,.03,.12,0,.24,0,.36-.01,.04,0,.08,0,.12,0,.12,0,.24-.02,.36-.05,.24-.06,.43-.2,.56-.41,.06-.1,.11-.21,.14-.32,0-.02,0-.04,.01-.06,.02-.08,.01-.08,.1-.08,.17,0,.35,0,.52,0,.29,0,.58,0,.87,0,.09,0,.09,0,.09,.09,0,.28-.04,.56-.14,.82-.15,.41-.41,.73-.77,.97-.04,.03-.09,.06-.14,.09-.34,.19-.7,.33-1.09,.39-.21,.04-.43,.06-.64,.06-.13,0-.25,0-.38,0-.33-.01-.65-.05-.97-.13-.32-.08-.63-.2-.91-.37-.56-.33-.96-.8-1.21-1.4-.1-.24-.17-.48-.21-.74-.04-.22-.06-.44-.06-.66,0-.16,0-.33,.02-.49,.06-.53,.2-1.03,.46-1.5,.41-.73,1.03-1.21,1.84-1.46,.19-.06,.39-.1,.6-.12,.31-.04,.62-.05,.93-.03,.32,.02,.64,.08,.95,.2,.48,.18,.87,.48,1.18,.9,.2,.27,.35,.58,.46,.9,.09,.26,.14,.52,.18,.79,.03,.22,.04,.45,.03,.67,0,.13-.01,.25-.03,.38,0,.01,0,.02,0,.04,0,.01-.01,.02-.03,.02-.01,0-.03,0-.04,0-.03,0-.06,0-.1,0-.72,0-1.44,0-2.17,0Z"/>
  <path class="cls-1" d="M14,7.02c-.57,0-1.15,0-1.72,0-.15,0-.14,.02-.14-.14,0-.28,0-.56,0-.84,0-.13,0-.12,.12-.12,.32,0,.65,0,.97,0,.83,0,1.65,0,2.48,0,.04,0,.08,0,.11,0,.01,0,.02,.01,.03,.02,0,.02,0,.04,0,.06,0,.31,0,.61,0,.92,0,.02,0,.03,0,.05,0,.03-.02,.04-.04,.04-.03,0-.06,0-.1,0-.57,0-1.14,0-1.71,0Z"/>
  <path class="cls-6" d="M6.15,10.38c.33,0,.65,0,.98,0,.06,0,.11,0,.17,0,.14,0,.28,.01,.42,.07,.24,.09,.41,.25,.5,.49,.05,.11,.07,.22,.08,.34,.02,.17,.02,.35,.02,.52,0,.1-.02,.21-.04,.31-.09,.34-.32,.56-.66,.66-.11,.03-.22,.04-.33,.04-.7,0-1.4,0-2.1,0-.11,0-.22,0-.33,0-.06,0-.07,0-.07-.07,0-.02,0-.04,0-.06,0-.72,0-1.44,0-2.17,0-.03,0-.06,0-.09,0-.01,.01-.02,.02-.03,.03,0,.06,0,.09,0,.16,0,.33,0,.49,0,.25,0,.5,0,.75,0Z"/>
  <path class="cls-6" d="M6.1,6.98c.39,0,.77,0,1.16,0,.1,0,.19,0,.28,.03,.15,.04,.27,.13,.35,.26,.04,.06,.07,.13,.09,.2,.04,.12,.05,.24,.06,.36,0,.15,0,.3-.02,.46,0,.08-.03,.16-.05,.24-.1,.27-.29,.42-.56,.47-.07,.01-.13,.02-.2,.02-.76,0-1.53,0-2.29,0-.03,0-.06,0-.09,0-.02,0-.04-.02-.04-.03,0-.03,0-.05,0-.08,0-.6,0-1.2,0-1.8,0-.11,0-.11,.11-.11,.4,0,.8,0,1.21,0h0Z"/>
  <path class="cls-6" d="M14.01,10.35c-.44,0-.87,0-1.31,0-.03,0-.07,0-.1,0-.02,0-.03-.02-.03-.03,0-.01,0-.03,0-.04,.05-.28,.16-.54,.35-.76,.2-.24,.46-.4,.76-.47,.1-.03,.2-.04,.31-.04,.18,0,.35,0,.53,.06,.4,.11,.68,.36,.84,.75,.06,.15,.09,.32,.1,.48,0,.02,0,.04,0,.07,0,0,0,.01-.01,.01,0,0-.02,0-.03,0-.03,0-.06,0-.09,0-.43,0-.87,0-1.3-.01h0Z"/>
</svg>