<?xml version="1.0" encoding="UTF-8"?>
<svg id="Layer_1" data-name="Layer 1" xmlns="http://www.w3.org/2000/svg" viewBox="0 0 250 250">
  <defs>
    <style>
      .cls-1 {
        fill: #bfbfbf;
      }

      .cls-2 {
        fill: #9c9c9c;
      }

      .cls-3 {
        fill: #7d7d7d;
      }

      .cls-4 {
        fill: #bebebe;
      }

      .cls-5 {
        fill: #c1c1c1;
      }

      .cls-6 {
        fill: #474747;
      }

      .cls-7 {
        fill: #b5b5b5;
      }
    </style>
  </defs>
  <path class="cls-3" d="M131.92,33.21c-.35,0-.7,.03-1.05,.03-3.84,0-7.68,0-11.52,0-.35,0-.7-.02-1.05-.03-.04-.03-.08-.06-.12-.1,.05-.02,.1-.03,.15-.05h13.59s.1,.03,.15,.05c-.04,.03-.08,.06-.12,.1Z"/>
  <path class="cls-2" d="M31.33,122.38c.11-.39,.2-.78,.23-1.18,.01-.14,.06-.28,.09-.42,.01,.41,.05,.82,.03,1.22-.06,1.55-.06,3.1,0,4.64,.02,.41-.02,.82-.03,1.22-.03-.14-.07-.28-.09-.42-.03-.2-.04-.4-.08-.6-.04-.2-.1-.39-.15-.58,0-1.29,0-2.59,0-3.88Z"/>
  <path class="cls-4" d="M217.29,131.38s-.1,.02-.15,.01c-.07-.58-.03-1.15,0-1.73,.02-.25,.1-.5,.15-.76v2.47Z"/>
  <path class="cls-7" d="M217.14,119.01c.05,0,.1,0,.15,.02v2.29c-.1-.3-.18-.61-.17-.93,0-.46,.02-.92,.02-1.38Z"/>
  <path class="cls-5" d="M118.31,33.07s-.02,.1-.02,.15c-.29,0-.58,0-.87,0,0-.05,0-.11,0-.16h.88Z"/>
  <path class="cls-1" d="M131.92,33.21s-.02-.1-.02-.15h.88c0,.05,0,.1,.01,.16-.29,0-.58,0-.87,0Z"/>
  <g>
    <path class="cls-6" d="M134.86,248.75h-19.94c-.53-.25-1.1-.06-1.65-.12-7.86-.02-15.5-1.46-23.04-3.55-8.15-2.26-16.01-5.24-23.54-9.09-9.69-4.96-18.61-11.06-26.68-18.4-9.32-8.48-17.16-18.14-23.45-29.06-7.89-13.69-13.01-28.36-15.49-43.97-.59-3.73-.87-7.46-.94-11.24-.03-1.61-.08-3.22-.12-4.84,0-2.96,0-5.91,0-8.86-.21-11.1,1.63-21.91,4.8-32.52,4.79-16.07,12.48-30.58,23.32-43.37,8.07-9.52,17.48-17.5,28.11-24.01,14.8-9.06,30.82-14.8,47.92-17.55,2.79-.45,5.61-.5,8.43-.65,1.05-.06,2.11-.22,3.17-.13h20.36c9.12,.01,18,1.6,26.78,3.94,3.06,.82,6.07,1.79,9.1,2.71,.95,.29,1.52,.84,1.91,1.76,1.77,4.16,2.75,8.44,1.85,12.96-1,4.98-4.12,8.33-8.52,10.64-4.64,2.43-9.67,3.71-14.73,4.82-12.87,2.81-25.84,5.15-38.58,8.55-11.13,2.97-22.24,5.96-32.91,10.37-11.43,4.73-21.83,11.1-31.09,19.35-9.64,8.59-17.42,18.55-22.87,30.28-3.88,8.36-6.33,17.13-7.43,26.28-.45,3.73-.81,7.48-.72,11.24,.38,15.92,4.47,30.77,12.93,44.35,4.02,6.45,8.74,12.33,14.25,17.56,5.65,5.37,11.89,9.94,18.72,13.7,8.88,4.88,18.29,8.3,28.28,10.01,3.78,.65,7.59,1.03,11.43,1.19,9.84,.42,19.4-1.07,28.73-4.08,8.54-2.75,16.38-6.91,23.71-12.07,5.12-3.61,9.91-7.64,14.26-12.14,8.46-8.73,15.86-18.27,21.68-29,5.54-10.21,9.49-20.96,11.45-32.43,.61-3.55,1.01-7.12,1.16-10.73,.43-10.07,.8-20.15,2.8-30.08,1.4-6.93,3.47-13.66,6.53-20.04,1.49-3.11,3.32-6,5.97-8.33,4.09-3.58,8.78-4.47,13.85-2.99,5.44,1.59,4.47,1.14,6.3,5.66,3.99,9.87,6.89,20.06,8.35,30.62,.52,3.82,.6,7.69,.58,11.56,.06,.99-.13,1.99,.12,2.97v10.21c-.26,1.05-.05,2.11-.12,3.16,.19,10.21-1.79,20.07-4.78,29.77-4.21,13.63-10.6,26.15-19.16,37.56-3.86,5.14-8.12,9.92-12.77,14.34-8.05,7.63-16.96,14.08-26.77,19.31-9.87,5.26-20.24,9.17-31.1,11.75-5.5,1.31-11.04,2.39-16.73,2.37-.6,0-1.22,.14-1.84,.13-.62,.07-1.26-.14-1.86,.12Z"/>
    <path class="cls-6" d="M136.77,248.53c0,.07,0,.14,0,.21h-1.9c.62-.26,1.26-.27,1.91-.21Z"/>
    <path class="cls-6" d="M113.26,248.75c-.01-.07-.02-.13-.03-.2,.58-.09,1.14-.03,1.69,.2h-1.66Z"/>
    <path class="cls-6" d="M57.8,101.43c.04-3.29,.13-6.22,.45-9.13,.43-3.86,1.04-7.68,1.95-11.46,.53-2.23,1.06-4.47,1.58-6.7,.03-.12,.07-.23,.09-.35,.08-.46,.3-.79,.7-1.05,1.32-.87,2.62-1.78,3.96-2.62,6.1-3.86,12.58-6.99,19.3-9.61,5.46-2.13,11.03-3.93,16.65-5.55,4.37-1.26,8.76-2.43,13.17-3.56,3.37-.86,6.74-1.72,10.13-2.53,4.15-.99,8.34-1.87,12.52-2.72,4.26-.87,8.53-1.72,12.79-2.61,3.29-.69,6.56-1.46,9.79-2.41,2.81-.83,5.57-1.81,8.19-3.14,1.91-.97,3.71-2.12,5.33-3.53,2.05-1.8,3.71-3.9,4.82-6.39,.63-1.41,1.17-2.85,1.74-4.29,.37-.93,.56-1.9,.53-2.9-.02-.67-.11-1.34-.17-2.01-.02-.2-.08-.39-.12-.58-.14-.85,0-.95,.76-.66,2.58,1,5.12,2.12,7.6,3.34,4.27,2.09,8.36,4.5,12.2,7.31,2.43,1.77,4.75,3.68,6.95,5.75,3.18,2.99,6.06,6.24,8.67,9.74,1.85,2.48,3.55,5.05,5.12,7.71,2.08,3.51,3.94,7.14,5.6,10.86,.16,.36,.3,.73,.44,1.1,.03,.09-.07,.25-.16,.27-1.04,.22-2.09,.43-3.13,.65-.97,.2-1.9,.55-2.8,.96-2.57,1.14-4.76,2.8-6.67,4.86-1.57,1.7-2.87,3.58-4.01,5.58-1.59,2.79-2.85,5.73-3.99,8.74-1.28,3.37-2.31,6.81-3.2,10.31-.89,3.49-1.55,7.03-2.09,10.59-.45,2.97-.76,5.97-1.07,8.96-.11,1.1-.19,2.21-.25,3.31-.12,2.09-.21,4.19-.31,6.28-.16,3.2-.24,6.41-.49,9.6-.17,2.13-.42,4.25-.77,6.36-.7,4.26-1.67,8.46-2.96,12.58-1.61,5.15-3.61,10.13-6.01,14.96-1.28,2.59-2.64,5.14-4.13,7.61-1.08,1.8-2.22,3.56-3.34,5.33-.11,.17-.22,.33-.33,.49-.18,.28-.44,.45-.75,.55-.08,.02-.15,.05-.22,.08-3.31,1.07-6.62,2.15-9.94,3.19-3.4,1.07-6.87,1.86-10.38,2.47-2.03,.35-4.06,.62-6.11,.84-4.42,.48-8.84,.55-13.27,.39-1.66-.06-3.31-.24-4.97-.37-1.89-.16-3.77-.44-5.64-.74-3.36-.54-6.68-1.3-9.95-2.24-7.15-2.05-13.93-4.96-20.34-8.72-3.38-1.98-6.62-4.19-9.71-6.6-4.29-3.34-8.23-7.05-11.83-11.12-1.23-1.39-2.41-2.83-3.56-4.3-2.42-3.09-4.61-6.33-6.58-9.73-2.01-3.46-3.78-7.04-5.3-10.74-1.94-4.73-3.46-9.6-4.52-14.6-.46-2.17-.82-4.35-1.13-6.55-.24-1.73-.42-3.46-.57-5.19-.06-.71-.09-1.42-.11-2.13-.05-1.42-.09-2.85-.13-3.91Z"/>
    <path class="cls-6" d="M145.81,195.03c2.96-.09,5.57-.15,8.17-.37,2.68-.22,5.35-.55,8-.99,3.99-.66,7.91-1.58,11.78-2.73,.42-.12,.83-.24,1.25-.35,.06-.02,.17,.01,.21,.06,.04,.04,.04,.15,0,.21-.1,.17-.21,.33-.34,.48-.88,1.02-1.75,2.05-2.65,3.05-1.17,1.29-2.35,2.57-3.54,3.84-2.94,3.11-6.08,6.01-9.39,8.71-5.04,4.12-10.43,7.71-16.24,10.67-6.6,3.36-13.51,5.8-20.78,7.2-2.88,.56-5.77,.95-8.69,1.19-3.48,.29-6.96,.29-10.44,.14-2.09-.09-4.18-.31-6.26-.59-2.98-.41-5.93-.97-8.85-1.7-4.08-1.01-8.05-2.34-11.93-3.95-5.35-2.22-10.43-4.94-15.25-8.16-2.47-1.65-4.84-3.43-7.12-5.34-4.1-3.44-7.86-7.22-11.26-11.36-1.81-2.2-3.51-4.49-5.09-6.86-2.15-3.23-4.06-6.61-5.73-10.11-.92-1.93-1.73-3.9-2.51-5.89-1.21-3.1-2.14-6.29-2.96-9.51-.78-3.07-1.32-6.19-1.7-9.33-.37-3.11-.57-6.22-.56-9.36,0-2.65,.08-5.3,.32-7.94,.31-3.27,.76-6.52,1.47-9.74,.69-3.13,1.5-6.23,2.53-9.27,1.49-4.39,3.33-8.64,5.53-12.72,1.62-3,3.41-5.89,5.39-8.66,2.85-4,6.01-7.76,9.5-11.22,1.21-1.2,2.45-2.36,3.68-3.53,.2-.19,.41-.37,.63-.54,.12-.09,.22-.23,.41-.18,.1,.02,.13,.16,.08,.42-.12,.62-.23,1.25-.38,1.86-.36,1.46-.58,2.95-.82,4.43-.31,1.99-.55,4-.72,6.01-.23,2.68-.33,5.37-.33,8.06,0,2.77,.07,5.54,.33,8.3,.33,3.55,.8,7.07,1.55,10.56,.63,2.9,1.31,5.79,2.19,8.62,1.48,4.77,3.31,9.4,5.52,13.88,1.54,3.12,3.26,6.15,5.15,9.08,3.42,5.3,7.32,10.22,11.72,14.75,2.96,3.04,6.1,5.87,9.43,8.49,6.22,4.89,12.94,8.94,20.18,12.15,4.96,2.2,10.08,3.97,15.34,5.3,3.03,.76,6.09,1.37,9.19,1.84,2.51,.38,5.02,.66,7.55,.83,2.25,.15,4.5,.2,6.41,.28Z"/>
  </g>
</svg>