<?xml version="1.0" encoding="UTF-8"?>
<svg id="Layer_1" data-name="Layer 1" xmlns="http://www.w3.org/2000/svg" viewBox="0 0 250 250">
  <defs>
    <style>
      .cls-1 {
        fill: #3949ab;
      }

      .cls-2 {
        fill: #e0e0e0;
      }

      .cls-3 {
        fill: #212121;
      }

      .cls-4 {
        fill: #616161;
      }
    </style>
  </defs>
  <ellipse class="cls-4" cx="114.96" cy="140.62" rx="94.53" ry="95.79"/>
  <path class="cls-3" d="M222.58,158.37c-29.64,34.06-73.05,29.99-81.57,28.95-24.02-2.92-40.39-14.54-45.86-18.74-6.24-4.79-24.86-19.54-32.18-45.96-11.36-40.99,14.37-74.53,16.77-77.56C108.11,9.32,151.91,10.93,157.38,11.22c25.94,1.4,43.93,13.59,49.78,17.9,5.68,4.19,25.81,19.48,33.69,47.73,7.51,26.91,1.89,58.34-18.27,81.51Z"/>
  <path class="cls-1" d="M195.89,108.27c-3.02,7.47-2.43,7.84-5.29,14.1-3.05,6.69-7.16,15.67-14.48,22.91-7.13,7.05-19.69,14.81-35.75,14.6-20.56-.27-33.39-13.44-35.87-16.11-2.75-2.95-13.49-15.18-13.59-33.86,0-.87,.17-20.54,14.1-34.99,5.39-5.59,11.86-9.39,16.87-12.34,5.24-3.08,6.73-3.35,15.86-7.68,26.96-12.79,28.92-17.55,29.15-20.41,.35-4.32-3.04-6.85-1.49-9.03,2.46-3.46,13.01,.13,16.28,1.24,14.59,4.97,24.06,13.53,26.69,15.99,4.85,4.55,16.64,16.7,19.51,32.98,.23,1.32,1.28,7.6-.63,8.43-2.14,.94-4.78-6.35-9.57-6.8-8.91-.83-18.44,22.73-21.78,30.96Z"/>
  <path class="cls-2" d="M234.92,70.64c-3.7-1.73-8.47-1.62-11.96,.38-5.57,3.19-6.89,10.61-8.33,18.73-.75,4.24-.84,7.43-.86,7.58-2.9,24.15-4.35,36.22-7.17,46.82-4.31,16.2-9.81,36.86-26.43,55.13-5.42,5.96-29.01,31.88-67.41,32.1-38.65,.21-62.62-25.79-65.89-29.45-21.62-24.25-22.32-52.31-22.28-59.48,.19-31.36,17.04-52.99,25.68-62.12,17.3-18.28,39.56-25.31,49.19-28.42,14.02-4.53,23.6-6.41,23.6-6.41,9.33-1.84,18.67-2.86,30.9-6.65,.47-.14,5.83-1.84,12.18-5.53,6.54-3.8,8.16-6.26,8.75-7.24,.49-.83,3.22-5.56,2.01-10.2-.84-3.22-3.71-6.95-15.92-11.08C145.91-.28,132.56-.59,124.56-.39c-6.94,.18-18.32,.54-32.38,4.44-3.59,.99-28.1,8.06-49.85,27.57C39.56,34.1-.87,71.47,.04,125.4c.99,58.63,50.65,124.99,124.99,124.99,69.03,0,124.99-55.96,124.99-124.99,0-10.57-4.42-32.42-5.06-35.28-2.47-11.01-4.7-16.97-10.05-19.48Z"/>
</svg>