<?xml version="1.0" encoding="UTF-8"?>
<svg id="Layer_1" data-name="Layer 1" xmlns="http://www.w3.org/2000/svg" viewBox="0 0 977.3 971.93">
  <defs>
    <style>
      .cls-1 {
        fill: #141414;
      }
    </style>
  </defs>
  <path class="cls-1" d="M451.93,0c.45,.13,.9,.34,1.36,.39,6.28,.79,11.38,3.78,15.46,8.51,4.12,4.79,6.41,10.33,6.38,16.73,0,.48,0,.96,0,1.45,.01,18.56,.02,37.12,.04,55.68,.02,22.1,.05,44.19,.08,66.29,.01,10.61,.03,21.21,.05,31.82,.03,21.94,.07,43.87,.1,65.81,.03,24.91,.06,49.82,.08,74.73,.03,40.09,.04,80.19,.06,120.28,.02,32.22,.04,64.44,.06,96.66,.02,21.94,.05,43.87,.05,65.81,0,10.2-.02,20.41-.13,30.61-.09,8.04-.78,16.04-1.77,24.02-.86,6.85-1.88,13.68-3.16,20.47-2.85,15.11-7.15,29.8-12.89,44.07-6.7,16.64-14.45,32.76-24.13,47.89-9.82,15.35-21.05,29.57-34.09,42.32-20.49,20.03-44.24,35.03-70.86,45.54-13.18,5.2-26.76,9-40.71,11.47-6.8,1.21-13.64,2.09-20.53,2.64-7.45,.6-14.91,.92-22.38,.83-7.39-.09-14.76-.56-22.12-1.29-8.08-.8-16.09-2-24.04-3.61-21.74-4.41-42.57-11.48-62.45-21.36-31.86-15.83-58.35-38.15-80.07-66.23-16.49-21.32-29.13-44.77-38.6-69.98-5.54-14.76-9.91-29.85-12.92-45.33-1.61-8.28-2.81-16.62-3.6-25.02-.59-6.24-.86-12.5-1.09-18.76-.28-7.72,.02-15.42,.59-23.11,.43-5.84,.95-11.69,1.68-17.5,1.2-9.48,2.98-18.87,5.24-28.16,5.24-21.55,12.93-42.18,23.36-61.77,11.56-21.72,26.18-41.18,43.42-58.68,27.19-27.6,59.16-47.62,95.79-60.22,11.86-4.08,23.97-7.2,36.32-9.36,6.4-1.12,12.85-1.93,19.32-2.63,12.81-1.37,25.64-1.67,38.5-1.26,5.7,.18,11.38,.66,17.05,1.24,11.12,1.13,22.11,2.97,32.98,5.54,23.57,5.57,45.92,14.33,67.07,26.14,7.02,3.92,13.83,8.16,20.46,12.7,2.73,1.88,5.18,4.05,7.23,6.67,6.8,8.71,7.21,19.84,1.66,28.89-3.99,6.5-10.08,10.18-17.66,11.34-3.22,.49-6.4,.25-9.57-.41-2.71-.56-5.17-1.66-7.45-3.24-7.74-5.35-15.81-10.14-24.08-14.61-12.77-6.91-26.22-12.07-40.16-16.04-9.97-2.84-20.07-5.06-30.32-6.6-3.25-.49-6.54-.74-9.82-1-9.78-.75-19.58-.9-29.38-.44-5.77,.27-11.55,.71-17.28,1.46-6.92,.91-13.75,2.4-20.53,4.07-9.67,2.38-19.16,5.36-28.44,8.96-6.97,2.71-13.61,6.12-20.17,9.69-8.47,4.61-16.61,9.77-24.41,15.46-6.18,4.51-11.84,9.62-17.38,14.88-5.65,5.38-10.95,11.08-16.03,17.01-5.77,6.73-10.69,14.06-15.36,21.57-5.23,8.39-9.88,17.1-13.96,26.11-3.75,8.28-6.61,16.89-9.2,25.58-3.1,10.4-5.45,20.97-7.12,31.69-.57,3.64-.81,7.34-1.17,11.02-.87,8.97-1.04,17.96-.83,26.97,.17,7.07,.58,14.14,1.54,21.14,1.27,9.23,3.31,18.32,5.78,27.31,2.66,9.68,5.83,19.2,9.62,28.5,3.95,9.68,8.72,18.97,14.04,27.96,2.62,4.42,5.39,8.76,8.21,13.05,7.78,11.81,17.35,22.08,27.57,31.79,12.28,11.67,26.39,20.65,41.33,28.47,11.94,6.25,24.59,10.59,37.55,14.11,8.06,2.19,16.23,3.89,24.48,5.16,3.17,.49,6.38,.74,9.58,.99,8.82,.69,17.65,.84,26.49,.47,5.61-.23,11.24-.55,16.79-1.43,8.17-1.29,16.24-3.07,24.17-5.42,3.54-1.05,7.04-2.2,10.54-3.38,10.1-3.4,19.38-8.5,28.5-13.92,11.48-6.82,21.47-15.47,30.83-24.93,11.27-11.39,20.47-24.3,28.41-38.16,4.59-8.02,8.81-16.23,12.49-24.71,3.56-8.18,6.34-16.65,8.8-25.22,2.62-9.11,4.64-18.36,6.14-27.72,.48-3.01,.79-6.05,1.02-9.1,.66-8.9,1.01-17.81,1-26.73,0-30.21-.02-60.42-.04-90.64-.02-21.29-.04-42.59-.07-63.88-.03-21.94-.06-43.87-.09-65.81-.03-21.53-.08-43.07-.1-64.6-.03-32.78-.06-65.57-.08-98.35-.02-30.61-.04-61.23-.05-91.84-.02-34.39-.04-68.78-.06-103.17,0-6.11,.11-12.22-.05-18.32-.32-12.65,8.89-22.68,20.46-25.09,1.02-.21,2.06-.33,3.08-.52,.54-.1,1.08-.27,1.61-.41,.64,0,1.29,0,1.93,0Z"/>
  <path class="cls-1" d="M977.3,364.95c-.11,.63-.29,1.25-.32,1.88-.09,1.6-.08,3.21-.17,4.82-.18,3.29-.28,6.58-.62,9.86-.67,6.47-1.54,12.91-2.64,19.33-2.47,14.43-6.09,28.57-10.87,42.4-15.36,44.42-41.21,81.66-77.1,111.89-27.82,23.43-59.48,39.6-94.6,49-9.7,2.6-19.54,4.49-29.49,5.86-13.95,1.92-27.96,2.83-42.03,2.62-7.87-.12-15.73-.56-23.56-1.41-43.12-4.66-82.67-19.13-118.67-43.32-2.07-1.39-4.11-2.81-5.91-4.55-3.85-3.71-6.51-8.1-7.76-13.34-2-8.4,1.05-19.54,9.39-25.42,7.08-4.99,14.7-6.03,22.91-3.78,2.11,.58,3.98,1.67,5.78,2.91,7.54,5.2,15.41,9.87,23.46,14.25,13.11,7.14,26.94,12.42,41.28,16.47,9.28,2.62,18.67,4.71,28.19,6.18,3.49,.54,7.02,.81,10.54,1.11,6.56,.56,13.15,.88,19.73,.82,7.55-.06,15.09-.42,22.61-1.18,11.87-1.19,23.41-3.9,34.85-7.12,5.79-1.63,11.49-3.59,17.13-5.69,7.16-2.66,13.98-6.07,20.71-9.67,8.36-4.48,16.38-9.51,24.13-14.98,5.79-4.09,11.12-8.72,16.32-13.52,6.97-6.44,13.5-13.31,19.61-20.57,5.86-6.97,10.85-14.54,15.6-22.29,4.87-7.95,9.22-16.19,13.05-24.69,3.73-8.28,6.59-16.89,9.17-25.59,3.11-10.48,5.48-21.13,7.12-31.93,.59-3.88,.84-7.82,1.19-11.74,.7-7.77,.96-15.56,.79-23.35-.15-6.67-.52-13.32-1.21-19.96-1.09-10.41-3.41-20.58-6.12-30.66-2.6-9.7-5.79-19.21-9.58-28.51-4.31-10.58-9.61-20.67-15.46-30.47-3.34-5.59-6.91-11.02-10.73-16.29-5.25-7.24-11.25-13.83-17.5-20.2-4.62-4.7-9.49-9.13-14.54-13.38-4.56-3.84-9.47-7.18-14.46-10.41-8.97-5.83-18.34-10.94-28.1-15.3-7.04-3.15-14.37-5.56-21.74-7.77-9.62-2.89-19.39-5.13-29.31-6.69-3.8-.6-7.65-.93-11.5-1.16-5.93-.35-11.87-.69-17.81-.71-7.87-.02-15.75,.35-23.55,1.41-7.8,1.06-15.49,2.74-23.05,4.91-4.55,1.3-9.05,2.76-13.55,4.24-6.73,2.23-13.06,5.37-19.28,8.72-7.15,3.86-14.03,8.14-20.57,12.95-5.77,4.25-11.01,9.12-16.12,14.12-5.23,5.12-10.13,10.54-14.76,16.21-3.61,4.43-6.79,9.16-9.89,13.95-7.54,11.61-14.05,23.78-19.53,36.48-3.82,8.85-6.74,18.04-9.26,27.34-2.42,8.92-4.4,17.94-5.63,27.09-.63,4.69-.88,9.44-1.17,14.16-.66,10.75-.51,21.52-.51,32.29,0,11.57,.03,23.14,.03,34.71,.02,30.93,.03,61.87,.04,92.8,.01,21.77,.03,43.55,.06,65.32,.02,21.61,.05,43.23,.08,64.84,.01,10.85,.03,21.69,.05,32.54,.03,21.69,.08,43.39,.1,65.08,.03,32.46,.06,64.92,.08,97.38,.02,32.54,.04,65.08,.05,97.62,0,11.01-.18,22.02,.07,33.02,.29,12.46-8.5,23.04-21.17,25.54-.53,.1-1.03,.34-1.54,.51h-6.27c-.29-.13-.57-.32-.87-.38-7.77-1.52-13.34-6.04-17.24-12.76-2.18-3.75-3.27-7.83-3.25-12.19,.02-4.1-.03-8.19-.04-12.29-.02-20.01-.03-40.01-.05-60.02-.03-22.01-.07-44.03-.1-66.04-.03-23.38-.06-46.76-.08-70.14-.03-41.54-.04-83.08-.06-124.62-.02-32.22-.04-64.44-.06-96.66-.02-21.93-.03-43.87-.06-65.8-.02-21.61-.05-43.23-.08-64.84-.01-11.57-.07-23.14-.03-34.71,.02-6.35,.08-12.7,.32-19.04,.24-6.5,.83-12.98,1.67-19.44,.83-6.37,1.79-12.71,2.95-19.04,2.76-15.13,6.99-29.83,12.67-44.12,6.68-16.82,14.47-33.1,24.2-48.39,10.09-15.86,21.67-30.52,35.19-43.59,21.51-20.78,46.45-36.08,74.47-46.44,12.75-4.71,25.85-8.13,39.29-10.28,6.9-1.11,13.83-1.9,20.8-2.41,9.71-.71,19.43-.68,29.14-.26,6.17,.27,12.32,.9,18.46,1.68,10.44,1.34,20.76,3.29,30.94,5.94,29.35,7.63,56.6,19.83,81.22,37.65,21.62,15.65,39.82,34.64,55.11,56.48,14.56,20.79,25.69,43.33,34.03,67.26,4.71,13.51,8.41,27.3,10.98,41.38,1.39,7.58,2.53,15.21,3.09,22.9,.27,3.76,.38,7.54,.59,11.3,.05,.87,.22,1.73,.34,2.59v19.28Z"/>
</svg>