<?xml version="1.0" encoding="UTF-8"?>
<svg id="Layer_1" data-name="Layer 1" xmlns="http://www.w3.org/2000/svg" viewBox="0 0 250 250">
  <defs>
    <style>
      .cls-1 {
        fill: #00b6ff;
      }

      .cls-2 {
        fill: #bfbfbf;
      }

      .cls-3 {
        fill: #ff3737;
      }

      .cls-4 {
        fill: #874fff;
      }

      .cls-5 {
        fill: #ff7237;
      }

      .cls-6 {
        fill: #24cb71;
      }
    </style>
  </defs>
  <path class="cls-2" d="M82.87,249.59c.35-.06,.68-.02,.98,.21h-.96c0-.07-.01-.14-.02-.21Z"/>
  <path class="cls-3" d="M73.66,0h41.67V83.33h-41.67c-23,0-41.67-18.67-41.67-41.67h0C31.99,18.67,50.66,0,73.66,0Z"/>
  <path class="cls-5" d="M157.2,0h41.67V83.33h-41.67c-23,0-41.67-18.67-41.67-41.67h0C115.53,18.67,134.2,0,157.2,0Z" transform="translate(314.4 83.33) rotate(-180)"/>
  <path class="cls-4" d="M73.66,83.33h41.67v83.33h-41.67c-23,0-41.67-18.67-41.67-41.67h0c0-23,18.67-41.67,41.67-41.67Z"/>
  <path class="cls-6" d="M73.66,166.67h41.67v41.67c0,23-18.67,41.67-41.67,41.67h0c-23,0-41.67-18.67-41.67-41.67h0c0-23,18.67-41.67,41.67-41.67Z"/>
  <circle class="cls-1" cx="157.2" cy="125" r="41.7"/>
</svg>