<?xml version="1.0" encoding="UTF-8"?>
<svg id="Layer_1" data-name="Layer 1" xmlns="http://www.w3.org/2000/svg" viewBox="0 0 250 250">
  <defs>
    <style>
      .cls-1 {
        fill: #bfbfbf;
      }

      .cls-2 {
        fill: #4e4e4e;
      }
    </style>
  </defs>
  <path class="cls-1" d="M82.87,249.59c.35-.06,.68-.02,.98,.21h-.96c0-.07-.01-.14-.02-.21Z"/>
  <path class="cls-2" d="M82.87,249.59c-5.59-.94-10.79-2.89-15.59-5.92-7.5-4.73-15.28-13.08-18.26-25.48-.45-1.87-.79-3.75-.94-5.67,0-.12,0-.25-.03-.36-.26-.82-.19-1.66-.19-2.5,0-1.16,0-2.32,0-3.48,0-.4,0-.8,.13-1.19,.07-.18,.07-.39,.09-.59,.71-7.15,3.06-13.7,7.18-19.6,5.73-8.21,13.43-13.69,23.05-16.46,2.5-.72,5.06-1.15,7.66-1.38,1.4-.12,2.79-.15,4.19-.15,12.99,0,25.99,0,38.98,0,.4,0,.8,0,1.2,0,.69,.02,.8,.13,.81,.87,0,.4,0,.8,0,1.2,0,10.03,0,20.07,0,30.1,0,2.88,0,5.76,0,8.64,0,.64,0,1.28-.02,1.92-.15,6.34-1.62,12.35-4.58,17.96-5.26,9.97-13.23,16.79-23.89,20.47-2.08,.72-4.22,1.22-6.39,1.58-.24,.04-.48,.06-.67,.23h-11.76c-.28-.26-.68,0-.98-.21Z"/>
  <path class="cls-2" d="M177.21,83.74c1.8,.13,3.57,.46,5.32,.88,12.54,3,22.85,11.54,28.21,23.31,1.38,3.03,2.43,6.17,3.04,9.45,.23,1.22,.35,2.45,.52,3.68,.06,.47,.18,.94,.21,1.42,.04,.68,.01,1.36,.02,2.04,0,.4,0,.8,0,1.2,0,.6-.02,1.2,0,1.8,.03,.61-.18,1.18-.24,1.78-.18,1.71-.44,3.41-.83,5.09-1.72,7.42-5.18,13.9-10.41,19.42-5.44,5.74-12.01,9.61-19.65,11.65-2.13,.57-4.29,.92-6.49,1.14-1.72,.18-3.43,.23-5.15,.19-6.12-.16-11.96-1.53-17.43-4.32-3.94-2.01-7.53-4.54-10.71-7.62-4.32-4.19-7.5-9.12-9.63-14.74-1.02-2.7-1.81-5.46-2.29-8.31-.05-.32-.09-.63-.13-.95-.05-.4-.1-.79-.3-1.15-.14,.11-.07,.27-.07,.4,0,2.28,0,4.56,0,6.84,0,9.04,0,18.07,0,27.11,0,.44-.02,.88-.04,1.32,0,.18-.21,.36-.4,.38-.12,.01-.24,.03-.36,.03-.24,0-.48,0-.72,0-13.35,0-26.71,0-40.06,0-.56,0-1.12,.01-1.67-.1-.19-.04-.4-.03-.6-.04-3.34-.07-6.6-.68-9.79-1.62-7.1-2.08-13.25-5.76-18.37-11.09-5.55-5.76-9.12-12.58-10.63-20.46-.2-1.06-.38-2.12-.46-3.2,0-.12,0-.25-.03-.36-.27-.82-.19-1.66-.2-2.5,0-1.04,0-2.08,0-3.12,0-.64,.01-1.27,.17-1.9,.16-.61,.17-1.27,.25-1.9,.39-3.07,1.22-6.03,2.36-8.9,2.58-6.54,6.63-12,12.05-16.47,5.22-4.3,11.15-7.14,17.74-8.6,2.11-.47,4.25-.78,6.41-.86,1.4-.05,2.79-.12,4.19-.14,1.36-.02,2.72,0,4.08,0,11.44,0,22.87,0,34.31,0,1.92,0,1.78-.16,1.78,1.72,0,11,0,21.99,.01,32.99,0,.44,0,.88,0,1.35,.23-.13,.18-.37,.25-.54,.07-.18,.09-.39,.11-.59,.16-1.35,.43-2.68,.76-4,1.56-6.31,4.32-12.02,8.54-16.99,6.27-7.38,14.13-12.14,23.63-14.14,1.25-.26,2.51-.47,3.79-.59,.07,0,.14-.05,.22-.09-.06-.03-.11-.09-.17-.09-.68-.02-1.36-.05-2.04-.05-10.8,0-21.59,0-32.39,0-.44,0-.88-.02-1.32-.04-.13,0-.32-.18-.34-.3-.02-.12-.06-.23-.06-.35-.01-.36-.01-.72-.01-1.08,0-26.55,0-53.1,0-79.65,0-.48,.02-.96,.05-1.44,.01-.21,.18-.37,.39-.39,.16-.02,.32-.03,.48-.03,.4,0,.8,0,1.2,0,13.31,0,26.63,0,39.94,0,.52,0,1.04,0,1.56,.01,.36,.01,.71,.07,1.07,.11,.36,.04,.71,.1,1.07,.14,4.57,.5,8.96,1.7,13.07,3.76,10.04,5.01,17.06,12.76,20.97,23.3,1.01,2.71,1.7,5.5,2.1,8.36,.11,.75,.12,1.52,.27,2.26,.19,.91,.17,1.83,.18,2.74,0,.56,0,1.12,0,1.68,.02,1.12-.03,2.23-.21,3.34-.23,1.38-.34,2.78-.62,4.15-1.39,6.78-4.19,12.9-8.59,18.26-4.77,5.82-10.67,10.08-17.73,12.69-2.67,.99-5.42,1.68-8.24,2.06-.71,.1-1.43,.16-2.14,.24-.2,.29,.08,.32,.23,.42Z"/>
  <path class="cls-2" d="M131.2,41.91c0,13.23,0,26.46,0,39.69,0,.48-.02,.96-.04,1.44,0,.2-.2,.38-.38,.4-.16,.02-.32,.04-.48,.04-.48,0-.96,0-1.44,0-12.75,0-25.5,0-38.25,0-.16,0-.32-.01-.48,0-1.4,.11-2.79-.02-4.18-.14-4.42-.39-8.67-1.41-12.74-3.16-5.02-2.16-9.48-5.13-13.3-9.05-5.21-5.35-8.86-11.59-10.71-18.85-.58-2.29-1-4.61-1.15-6.97,0-.12,0-.24-.03-.36-.3-1.59-.12-3.19-.16-4.78,.52-8.91,3.39-16.95,8.87-24.03,2.42-3.12,5.28-5.78,8.48-8.08,3.86-2.78,8.04-4.91,12.62-6.23,2.31-.66,4.66-1.12,7.05-1.38,1.71-.19,3.42-.26,5.14-.26,13.11,.01,26.22,0,39.33,0,.48,0,.96,.02,1.44,.05,.19,0,.37,.2,.38,.4,.02,.44,.04,.88,.04,1.32,0,7.99,0,15.99,0,23.98,0,5.32,0,10.63,0,15.95Z"/>
</svg>