<?xml version="1.0" encoding="UTF-8"?>
<svg id="Layer_1" data-name="Layer 1" xmlns="http://www.w3.org/2000/svg" viewBox="0 0 250 250">
  <defs>
    <style>
      .cls-1 {
        fill: #fff;
      }

      .cls-2 {
        fill: #4e4e4e;
      }
    </style>
  </defs>
  <circle class="cls-2" cx="125" cy="125" r="125"/>
  <path class="cls-1" d="M122.47,53.82h30.43c4.17,0,8.33,.63,12.37,2.02,12.25,4.04,22.47,14.27,25.88,28.03,.76,2.9,1.14,5.81,1.14,8.84v62.88c-.13,5.18-1.39,10.23-3.54,14.9-4.92,10.48-14.02,18.18-24.75,21.34-2.27,.63-4.55,1.14-6.94,1.39-1.26,.13-2.65,.25-3.91,.25h-61.11c-17.55,0-33.33-11.87-38.01-29.17-.88-3.16-1.26-6.31-1.26-9.6v-62.88c.13-4.92,1.26-9.6,3.16-14.14,4.8-11.24,14.65-19.57,26.52-22.6,2.15-.51,4.42-.88,6.69-1.14,1.39,0,2.78-.13,4.17-.13h29.17Z"/>
  <path class="cls-2" d="M65.15,123.65v-30.81c.25-5.18,1.77-9.97,4.8-14.27,4.17-6.06,9.85-9.97,17.05-11.62,1.64-.38,3.16-.63,4.8-.63h60.61c4.92,0,9.47,1.39,13.64,3.91,6.69,4.04,10.98,9.85,12.88,17.42,.51,2.02,.76,3.91,.76,5.93v58.71c0,1.39,0,2.9-.25,4.29-.38,2.78-1.14,5.43-2.27,7.95-3.66,7.95-10.73,13.51-18.56,15.4-2.15,.51-4.29,.76-6.44,.88h-58.59c-1.26,0-2.4,0-3.54-.13-3.28-.38-6.31-1.26-9.22-2.65-7.7-3.79-12.75-10.61-14.65-17.68-.63-2.27-.88-4.67-1.01-6.94v-1.39c0-9.47,0-18.94,0-28.41Z"/>
  <path class="cls-1" d="M86.24,123.65c0-20.2,16.54-36.24,36.49-36.11,20.33,0,36.11,16.79,35.98,36.49,0,19.57-15.91,36.11-36.49,35.98-19.95,0-35.98-16.29-35.98-36.36Z"/>
  <path class="cls-1" d="M159.85,94.48c-4.29,0-8.08-3.41-8.08-8.08,0-4.92,4.04-8.08,8.08-8.08s8.08,3.03,8.08,8.08-3.91,8.21-8.08,8.08Z"/>
  <path class="cls-2" d="M122.6,146.88c-12.75,0-23.36-10.35-23.36-23.23s10.1-23.23,23.23-23.23,23.36,10.35,23.36,23.23-10.73,23.36-23.23,23.36v-.13Z"/>
</svg>