<?xml version="1.0" encoding="UTF-8"?>
<svg id="Layer_1" data-name="Layer 1" xmlns="http://www.w3.org/2000/svg" viewBox="0 0 19.81 19.9">
  <defs>
    <style>
      .cls-1 {
        fill: #fff;
      }

      .cls-2 {
        fill: #3a3a3a;
      }

      .cls-3 {
        fill: #3b3b3b;
      }

      .cls-4 {
        fill: #878787;
      }

      .cls-5 {
        fill: #ccc;
      }

      .cls-6 {
        fill: #b9b9b9;
      }
    </style>
  </defs>
  <path class="cls-2" d="M19.81,9.37v1.27s0,.09,0,.13c0,.69-.12,1.36-.32,2.02-.16,.57-.38,1.12-.64,1.64-.35,.71-.78,1.37-1.3,1.97-.72,.85-1.56,1.57-2.52,2.14-1.13,.67-2.34,1.11-3.64,1.3-.18,.03-.36,.03-.54,.03-.1,0-.2,.02-.3,.01h-.12c-.05,0-.1-.01-.15,0h-.65c-.06-.02-.11,0-.17,0h-.14c-.78,0-1.53-.14-2.27-.36-.6-.18-1.17-.42-1.73-.71-.66-.35-1.28-.77-1.85-1.26-.75-.65-1.39-1.38-1.93-2.21-.53-.83-.93-1.71-1.19-2.66-.13-.46-.23-.94-.28-1.41-.03-.26-.03-.52-.04-.78,0-.08,0-.16-.02-.23v-.53c.04-.19,.02-.37,.02-.56,.02-.45,.09-.89,.18-1.32,.18-.81,.45-1.58,.82-2.31,.38-.75,.84-1.44,1.4-2.07,.57-.66,1.22-1.23,1.94-1.72,.67-.45,1.39-.82,2.15-1.1,.64-.23,1.29-.4,1.97-.49,.19-.03,.38-.03,.57-.04,.11,0,.22-.02,.33-.01h.14c.06,0,.13,.01,.19,0h.49c.08,.02,.16,0,.24,0,1.08,0,2.11,.24,3.12,.63,1.06,.41,2.01,.99,2.87,1.74,.69,.6,1.29,1.28,1.8,2.04,.45,.68,.82,1.41,1.09,2.19,.19,.55,.34,1.11,.43,1.68,.04,.28,.05,.57,.05,.86,0,.04-.01,.09,0,.13Z"/>
  <path class="cls-6" d="M10.46,0s0,.01,0,.02c-.07,0-.14,0-.21,0-.02,0-.03,0-.04-.01,.08,0,.17,0,.25,0Z"/>
  <path class="cls-4" d="M9.71,0c-.06,.02-.13,.02-.19,.02,0,0,0,0-.01-.01,0,0,.01,0,.02,0h.19Z"/>
  <path class="cls-5" d="M9.52,0s0,.01,0,.02c-.05,0-.1,0-.15,0,0,0,0-.01,0-.02h.15Z"/>
  <path class="cls-1" d="M9.91,4.47c.8,0,1.61,0,2.41,0,.33,0,.66,.05,.98,.16,.97,.32,1.78,1.13,2.05,2.22,.06,.23,.09,.46,.09,.7,0,.03,0,.06,0,.09,0,1.57,0,3.14,0,4.71,0,.06,0,.12,0,.18-.01,.41-.11,.81-.28,1.18-.39,.83-1.11,1.44-1.96,1.69-.18,.05-.36,.09-.55,.11-.1,.01-.21,.02-.31,.02-1.61,0-3.23,0-4.84,0-1.39,0-2.64-.94-3.01-2.31-.07-.25-.1-.5-.1-.76,0-.03,0-.07,0-.1,0-1.57,0-3.14,0-4.71,0-.06,0-.12,0-.17,.01-.39,.1-.76,.25-1.12,.38-.89,1.16-1.55,2.1-1.79,.17-.04,.35-.07,.53-.09,.11,0,.22-.01,.33-.01,.78,0,1.55,0,2.33,0Z"/>
  <path class="cls-3" d="M5.37,10c0-.75,0-1.51,0-2.26,0-.06,0-.12,0-.18,.02-.41,.14-.79,.38-1.13,.33-.48,.78-.79,1.35-.92,.13-.03,.25-.05,.38-.05,.05,0,.1,0,.16,0,1.51,0,3.01,0,4.52,0,.04,0,.08,0,.12,0,.39,0,.75,.11,1.08,.31,.53,.32,.87,.78,1.02,1.38,.04,.16,.06,.31,.06,.47,0,.03,0,.06,0,.09,0,1.52,0,3.04,0,4.56,0,.11,0,.23-.02,.34-.03,.22-.09,.43-.18,.63-.29,.63-.85,1.07-1.47,1.22-.17,.04-.34,.06-.51,.07-.02,0-.05,0-.07,0-1.52,0-3.05,0-4.57,0-.1,0-.19,0-.28-.01-.26-.03-.5-.1-.73-.21-.61-.3-1.01-.84-1.16-1.4-.05-.18-.07-.37-.08-.55,0-.04,0-.07,0-.11,0-.75,0-1.5,0-2.25Z"/>
  <path class="cls-1" d="M7.04,10c0-1.6,1.31-2.87,2.89-2.86,1.61,0,2.86,1.33,2.85,2.89,0,1.55-1.26,2.86-2.89,2.85-1.58,0-2.85-1.29-2.85-2.88Z"/>
  <path class="cls-1" d="M12.87,7.69c-.34,0-.64-.27-.64-.64,0-.39,.32-.64,.64-.64,.31,0,.64,.24,.64,.64,0,.38-.31,.65-.64,.64Z"/>
  <path class="cls-3" d="M9.92,11.84c-1.01,0-1.85-.82-1.85-1.84,0-.99,.8-1.84,1.84-1.84,1.02,0,1.85,.82,1.85,1.84,0,1.05-.85,1.85-1.84,1.85Z"/>
</svg>