<?xml version="1.0" encoding="UTF-8"?>
<svg id="Layer_1" data-name="Layer 1" xmlns="http://www.w3.org/2000/svg" viewBox="0 0 250 250">
  <defs>
    <style>
      .cls-1 {
        fill: #b7b7b7;
      }

      .cls-2 {
        fill: #a9a9a9;
      }

      .cls-3 {
        fill: #4e4e4e;
      }

      .cls-4 {
        fill: #c2c2c2;
      }
    </style>
  </defs>
  <path class="cls-1" d="M55.89,33.6c0,.05-.02,.1-.03,.15-.37,0-.73,0-1.1,0,0-.05,0-.11,.01-.16h1.11Z"/>
  <path class="cls-2" d="M53.67,226.47s-.02-.1-.02-.15c.39-.06,.77-.02,1.13,.15h-1.11Z"/>
  <path class="cls-4" d="M215.47,64.13c.05,0,.11,0,.16,.01v.93c-.15-.3-.23-.6-.16-.94Z"/>
  <path class="cls-3" d="M218.44,193.09c-.05,.01-.1,.02-.16,.02-.06-.28,0-.53,.16-.76v.74Z"/>
  <g>
    <path class="cls-3" d="M250,40.71c-.25-.41-.06-.85-.12-1.28-.14-2.48-.2-4.97-.93-7.38-2.55-8.37-6.95-15.57-13.56-21.36C227.57,3.86,218.68-.26,208.07,.05H41.66c-2.54,.09-5.11,.05-7.58,.64-6.47,1.54-12.3,4.45-17.42,8.7-4.9,4.08-9.01,8.85-11.83,14.6C2.42,28.92,.42,33.98,.35,39.63c-.02,1.3,.19,2.69-.35,3.97V206.5c.26,.47,.25,.99,.23,1.51-.05,1.71,.06,3.42,.3,5.1,.75,5.39,2.75,10.38,5.48,15.05,4.82,8.23,11.55,14.39,20.21,18.45,4.4,2.06,8.96,3.22,13.82,3.2,.49,.06,1-.13,1.47,.12H208.73c.54-.26,1.12-.06,1.67-.12,2.18-.05,4.38-.09,6.5-.59,4.42-1.05,8.55-2.85,12.39-5.29,6.67-4.24,11.97-9.79,15.79-16.71,2.88-5.21,4.89-10.7,4.79-16.77,.05-.35-.11-.73,.12-1.07V40.71Zm-96.74,135.43c-.4,.04-.8,.04-1.2,.04-4.64,0-9.28,0-13.91,0-2.04,0-4.08,0-6.12,0-.32,0-.64,0-.96-.03-.6-.06-1.05-.37-1.3-.93-.15-.33-.26-.67-.38-1.01-1.62-4.81-3.23-9.62-4.85-14.43-.98-2.92-1.95-5.84-2.93-8.75-.13-.38-.27-.75-.42-1.12-.06-.16-.19-.26-.36-.28-.2-.02-.4-.04-.6-.04-.52,0-1.04,0-1.56,0-11.51,0-23.03,0-34.54,0-.48,0-.96,.02-1.44,.04-.17,0-.31,.09-.37,.25-.14,.37-.28,.75-.4,1.13-1.47,4.65-2.93,9.3-4.4,13.95-.97,3.09-1.94,6.18-2.92,9.26-.07,.23-.14,.46-.23,.68-.3,.8-.88,1.21-1.72,1.27-.32,.02-.64,.01-.96,.01-3.04,0-6.08,0-9.12,0-2.92,0-5.84,0-8.76,0-.44,0-.88-.02-1.31-.08-.52-.08-.85-.48-.85-1.01,0-.2,.02-.4,.07-.59,.11-.42,.24-.85,.38-1.26,3.38-9.99,6.77-19.99,10.16-29.98,7.55-22.3,15.11-44.59,22.65-66.89,.5-1.48,.92-2.98,1.37-4.47,.07-.23,.1-.47,.14-.7,.35-1.89,.48-3.8,.52-5.73,0-.32,0-.64,.05-.96,.05-.45,.42-.82,.87-.87,.36-.04,.72-.04,1.08-.04,3.16,0,6.32,0,9.48,0,1,0,2,0,3,0,4.16,0,8.32,0,12.47,0,.44,0,.88,.02,1.31,.08,.43,.05,.73,.31,.89,.72,.1,.26,.19,.53,.28,.79,8.87,25.69,17.75,51.37,26.62,77.06,3.56,10.31,7.13,20.63,10.69,30.94,.12,.34,.24,.68,.35,1.02,.07,.23,.14,.46,.18,.7,.13,.7-.22,1.17-.94,1.24Zm35.76-2.51c0,.44,.02,.88-.01,1.32-.02,.32-.08,.63-.16,.94-.12,.43-.44,.65-.85,.76-.15,.04-.32,.05-.48,.05-.32,0-.64,0-.96,0-6.08,0-12.16,0-18.23,0-.32,0-.64,0-.96,0-.2,0-.4-.03-.59-.08-.55-.15-.9-.51-1-1.08-.04-.23-.06-.48-.07-.71-.01-.4,0-.8,0-1.2,0-26.51,0-53.02,0-79.53,0-.44,0-.88,.01-1.32,0-.24,.04-.48,.1-.71,.1-.37,.36-.62,.74-.71,.15-.04,.32-.06,.47-.06,.36-.01,.72-.01,1.08-.01,6.16,0,12.32,0,18.47,0,.44,0,.88,0,1.32,.03,.52,.04,.89,.36,1.02,.87,.06,.23,.09,.47,.1,.71,.02,.44,0,.88,0,1.32,0,13.24,0,26.47,0,39.71s0,26.47,0,39.71Zm1.02-101.02c-.53,2.09-1.48,3.97-2.91,5.58-2.26,2.55-5.11,3.9-8.51,4.08-.12,0-.24,0-.36,0-.24,0-.48,0-.72,0-1.04-.01-2.07-.04-3.1-.27-2.32-.52-4.34-1.6-6.08-3.21-.29-.27-.56-.57-.8-.89-1.88-2.4-2.89-5.13-3-8.19-.02-.56-.01-1.12,0-1.68,.04-5.4,3.57-10.36,9.15-12.01,.96-.28,1.94-.47,2.94-.51,1.77-.08,3.52,.03,5.22,.54,2.54,.76,4.59,2.2,6.12,4.38,1.5,2.15,2.3,4.55,2.46,7.16,.1,1.68,0,3.35-.42,5Z"/>
    <path class="cls-3" d="M101.6,127.88c-3.8,0-7.59,0-11.39,0-.4,0-.8,0-1.2-.02-.36-.02-.49-.21-.39-.56,.08-.27,.17-.53,.26-.8,1.4-4.13,2.65-8.29,3.82-12.49,.61-2.19,1.31-4.36,1.96-6.54,1.35-4.48,2.71-8.95,4.04-13.43,.9-3.03,1.63-6.1,2.3-9.18,.08-.35,.16-.7,.26-1.05,.02-.06,.09-.14,.15-.14,.06,0,.17,.05,.19,.11,.13,.37,.26,.75,.37,1.14,.96,3.46,1.88,6.94,2.89,10.39,.91,3.15,1.91,6.27,2.87,9.4,1.45,4.74,2.88,9.48,4.34,14.21,.74,2.41,1.53,4.79,2.29,7.19,.14,.46,.24,.93,.35,1.39,.04,.15-.11,.32-.27,.33-.4,.02-.8,.04-1.2,.04-3.88,0-7.75,0-11.63,0Z"/>
  </g>
</svg>