<?xml version="1.0" encoding="UTF-8"?>
<svg id="Layer_1" data-name="Layer 1" xmlns="http://www.w3.org/2000/svg" viewBox="0 0 250 250">
  <defs>
    <style>
      .cls-1 {
        fill: #fff;
      }

      .cls-2 {
        fill: #3a3a3a;
      }
    </style>
  </defs>
  <circle class="cls-2" cx="125" cy="125" r="125"/>
  <g>
    <path class="cls-1" d="M104.48,140.27v-44.83c0-.34,.11-.46,.46-.46h1.03c5.27,0,10.55,0,15.82-.11h8.37c.23,0,.34,.11,.34,.46v11.12c0,.34-.11,.8,.23,1.15,.34-.11,.46-.46,.69-.8,4.82-6.54,11.12-10.78,19.03-12.73,3.67-.92,7.34-1.26,11.12-1.03,8.14,.57,15.36,3.33,21.56,8.6,4.7,4.01,8.03,9.06,10.09,14.91,1.03,2.75,1.61,5.62,1.95,8.48v60.54c0,.11-.11,.23-.23,.23h-26.95c-.11,0-.34-.23-.34-.34v-47.7c0-2.64-.46-5.16-1.38-7.57-.92-2.64-2.41-4.93-4.36-6.99-2.29-2.29-5.16-3.78-8.37-4.24-1.72-.23-3.44-.23-5.05,0-2.06,.23-4.01,.8-5.96,1.61-3.21,1.38-5.73,3.44-7.57,6.42-1.15,1.83-1.95,3.9-2.29,6.08-.23,1.26-.34,2.64-.23,3.9v14.79c0,8.48,.11,16.97,.23,25.45v8.26c0,.11-.23,.34-.34,.34h-26.95c-.11,0-.23-.11-.34-.23v-1.61c0-.5-.17-13.46-.57-43.69Z"/>
    <path class="cls-1" d="M60.33,140.16v-45.06c0-.11,.11-.23,.34-.23h26.49c1.95,0,1.72-.23,1.72,1.61v88.86c0,.23-.23,.34-.34,.34h-27.75c-.23,0-.46-.11-.46-.34v-45.18Z"/>
    <path class="cls-1" d="M74.78,49.34c9.4,0,16.28,7.8,16.17,16.28,0,8.83-7.34,16.17-16.28,16.17-8.37,0-16.17-6.77-16.17-16.28s7.34-16.17,16.28-16.17Z"/>
  </g>
</svg>