<?xml version="1.0" encoding="UTF-8"?>
<svg id="Layer_1" data-name="Layer 1" xmlns="http://www.w3.org/2000/svg" viewBox="0 0 19.81 19.9">
  <defs>
    <style>
      .cls-1 {
        fill: #fff;
      }

      .cls-2 {
        fill: #3a3a3a;
      }

      .cls-3 {
        fill: #878787;
      }

      .cls-4 {
        fill: #ccc;
      }

      .cls-5 {
        fill: #b9b9b9;
      }
    </style>
  </defs>
  <path class="cls-2" d="M19.81,9.37v1.27s0,.09,0,.13c0,.69-.12,1.36-.32,2.02-.16,.57-.38,1.12-.64,1.64-.35,.71-.78,1.37-1.3,1.97-.72,.85-1.56,1.57-2.52,2.14-1.13,.67-2.34,1.11-3.64,1.3-.18,.03-.36,.03-.54,.03-.1,0-.2,.02-.3,.01h-.12c-.05,0-.1-.01-.15,0h-.65c-.06-.02-.11,0-.17,0h-.14c-.78,0-1.53-.14-2.27-.36-.6-.18-1.17-.42-1.73-.71-.66-.35-1.28-.77-1.85-1.26-.75-.65-1.39-1.38-1.93-2.21-.53-.83-.93-1.71-1.19-2.66-.13-.46-.23-.94-.28-1.41-.03-.26-.03-.52-.04-.78,0-.08,0-.16-.02-.23v-.53c.04-.19,.02-.37,.02-.56,.02-.45,.09-.89,.18-1.32,.18-.81,.45-1.58,.82-2.31,.38-.75,.84-1.44,1.4-2.07,.57-.66,1.22-1.23,1.94-1.72,.67-.45,1.39-.82,2.15-1.1,.64-.23,1.29-.4,1.97-.49,.19-.03,.38-.03,.57-.04,.11,0,.22-.02,.33-.01h.14c.06,0,.13,.01,.19,0h.49c.08,.02,.16,0,.24,0,1.08,0,2.11,.24,3.12,.63,1.06,.41,2.01,.99,2.87,1.74,.69,.6,1.29,1.28,1.8,2.04,.45,.68,.82,1.41,1.09,2.19,.19,.55,.34,1.11,.43,1.68,.04,.28,.05,.57,.05,.86,0,.04-.01,.09,0,.13Z"/>
  <path class="cls-5" d="M10.46,0s0,.01,0,.02c-.07,0-.14,0-.21,0-.02,0-.03,0-.04-.01,.08,0,.17,0,.25,0Z"/>
  <path class="cls-3" d="M9.71,0c-.06,.02-.13,.02-.19,.02,0,0,0,0-.01-.01,0,0,.01,0,.02,0h.19Z"/>
  <path class="cls-4" d="M9.52,0s0,.01,0,.02c-.05,0-.1,0-.15,0,0,0,0-.01,0-.02h.15Z"/>
  <g>
    <path class="cls-1" d="M7.96,11.65c0-1.27,0-2.53,0-3.8,0-.04,0-.08,0-.11,0-.03,.01-.04,.04-.04,.03,0,.06,0,.09,0,.46,0,.92,0,1.38-.01,.21,0,.42,0,.64,0,.03,0,.06,0,.09,0,.02,0,.03,.01,.03,.04,0,.03,0,.06,0,.09,0,.27,0,.54,0,.81,0,.02,0,.04,0,.07,0,.03-.01,.07,.02,.1,.03-.01,.04-.04,.06-.07,.42-.57,.97-.94,1.66-1.11,.32-.08,.64-.11,.97-.09,.71,.05,1.34,.29,1.88,.75,.41,.35,.7,.79,.88,1.3,.09,.24,.14,.49,.17,.74,0,.03,0,.07,0,.1,0,.03,0,.06,0,.09,0,1.66,0,3.31,0,4.97,0,.04,0,.08,0,.12,0,.01-.01,.02-.02,.02-.03,0-.06,0-.09,0-.31,0-.61,0-.92,0-.42,0-.84,0-1.25,0-.03,0-.06,0-.09,0-.01,0-.03-.02-.03-.03,0-.03,0-.06,0-.09,0-.25,0-.5,0-.75,0-.77,0-1.53,0-2.3,0-.34,0-.68,0-1.02,0-.23-.04-.45-.12-.66-.08-.23-.21-.43-.38-.61-.2-.2-.45-.33-.73-.37-.15-.02-.3-.02-.44,0-.18,.02-.35,.07-.52,.14-.28,.12-.5,.3-.66,.56-.1,.16-.17,.34-.2,.53-.02,.11-.03,.23-.02,.34,0,.43,0,.86,0,1.29,0,.74,.01,1.48,.02,2.22,0,.21,0,.42,0,.63,0,.03,0,.06,0,.09,0,.01-.02,.03-.03,.03-.03,0-.06,0-.09,0-.29,0-.59,0-.88,0-.43,0-.85,0-1.28,0-.03,0-.07,0-.1,0-.01,0-.02-.01-.03-.02,0-.01,0-.03,0-.04,0-.03,0-.07,0-.1,0-1.27,0-2.53,0-3.8Z"/>
    <path class="cls-1" d="M4.11,11.64c0-1.27,0-2.55,0-3.82,0-.04,0-.08,0-.11,0-.01,.01-.02,.03-.02,.01,0,.03,0,.04,0,.03,0,.06,0,.09,0,.73,0,1.46,0,2.18,0,.17,0,.15-.02,.15,.14,0,2.55,0,5.09,0,7.64,0,.04,0,.08,0,.11,0,.02-.02,.03-.03,.03-.03,0-.05,0-.08,0-.76,0-1.51,0-2.27,0-.02,0-.04,0-.07,0-.02,0-.04-.01-.04-.03,0-.01,0-.03,0-.04,0-.03,0-.06,0-.09,0-1.27,0-2.53,0-3.8Z"/>
    <path class="cls-1" d="M5.37,3.72c.82,0,1.42,.68,1.41,1.42,0,.77-.64,1.41-1.42,1.41-.73,0-1.41-.59-1.41-1.42,0-.79,.64-1.41,1.42-1.41Z"/>
  </g>
</svg>