<?xml version="1.0" encoding="UTF-8"?>
<svg id="Layer_1" data-name="Layer 1" xmlns="http://www.w3.org/2000/svg" viewBox="0 0 250 250">
  <defs>
    <style>
      .cls-1 {
        fill: #49021f;
      }

      .cls-2 {
        fill: #f36;
      }
    </style>
  </defs>
  <rect class="cls-2" x="35.63" y="45.38" width="178.47" height="178.47"/>
  <g>
    <path class="cls-1" d="M250,40.71c-.25-.4-.06-.85-.12-1.27,.01-4.08-.87-7.98-2.44-11.73-2.88-6.9-7.03-12.91-12.8-17.7C227.23,3.85,218.91-.1,209.02,.04H41.66c-2.54,.09-5.11,.05-7.58,.64-6.47,1.54-12.3,4.45-17.42,8.7-4.9,4.08-9.01,8.85-11.83,14.6C2.42,28.91,.42,33.97,.35,39.62c-.02,1.3,.19,2.69-.35,3.97V206.49c.29,.43,.29,.95,.27,1.4-.1,1.66,.11,3.3,.28,4.94,.58,5.5,2.68,10.5,5.41,15.22,4.93,8.52,11.94,14.8,20.93,18.86,4.12,1.86,8.4,2.84,12.9,2.88,.49,.06,1-.13,1.47,.12H208.25c.54-.26,1.12-.06,1.68-.12h.95c2.02-.12,4.06-.12,6.03-.59,4.46-1.07,8.63-2.89,12.5-5.36,6.63-4.23,11.88-9.78,15.69-16.66,2.88-5.2,4.88-10.69,4.78-16.75,.05-.35-.11-.73,.12-1.06V40.71ZM91.13,182.38c0,.4,0,.8,0,1.2,0,.24-.02,.48-.06,.72-.14,.74-.54,1.11-1.29,1.19-.28,.03-.56,.03-.84,.03-6.32,0-12.63,0-18.95,0-.36,0-.72-.02-1.07-.07-.43-.06-.72-.33-.86-.74-.07-.22-.12-.46-.14-.7-.02-.48-.02-.96-.02-1.44,0-17.91,0-35.82,0-53.72s0-35.82,0-53.72c0-.48,0-.96,.02-1.44,.04-.72,.49-1.16,1.22-1.24,.28-.03,.56-.03,.84-.03,6.4,0,12.79,0,19.19,0,.28,0,.56,0,.84,.04,.38,.06,.67,.27,.84,.62,.18,.36,.29,.75,.29,1.15,0,.48,0,.96,0,1.44,0,26.74,0,53.49,0,80.23,0,8.83,0,17.67,0,26.5Zm94.14-3.38c-.11,.45-.35,.81-.75,1.04-.35,.2-.72,.35-1.08,.51-3.55,1.48-7.18,2.69-10.91,3.63-2.99,.75-6.01,1.33-9.06,1.75-2.42,.33-4.84,.58-7.28,.72-1.76,.11-3.51,.15-5.27,.16-2.52,.02-5.04-.16-7.53-.51-5.1-.72-9.99-2.16-14.64-4.4-5.4-2.6-9.82-6.39-13.39-11.19-2.93-3.93-4.94-8.3-6.17-13.03-.6-2.28-1.01-4.6-1.29-6.95-.42-3.54-.57-7.1-.36-10.65,.51-8.71,3.24-16.67,8.42-23.73,6.16-8.41,14.34-13.9,24.39-16.6,2.71-.73,5.46-1.21,8.25-1.5,2.59-.27,5.18-.43,7.78-.4,.64,0,1.28,.08,1.91,.11,.88,.05,1.76,.1,2.63,.12,.35,.01,.56-.1,.57-.59,0-.44,.01-.88,.01-1.32,0-10.11,0-20.23,0-30.34,0-.44-.01-.88,.01-1.32,.01-.23,.07-.47,.15-.7,.1-.28,.32-.46,.62-.51,.16-.03,.32-.04,.48-.05,.32,0,.64,0,.96,0,6.36,0,12.71,0,19.07,0,.36,0,.72,0,1.08,.02,.45,.03,.81,.39,.84,.86,.02,.28,.02,.56,.02,.84,0,.8,0,1.6,0,2.4v51.69c0,15.35,0,30.7,0,46.05,0,2.68,.11,5.36,.27,8.03,.1,1.6,.2,3.19,.31,4.79,.02,.36,.04,.72-.05,1.07Z"/>
    <path class="cls-1" d="M161.5,142.01c0,7.28,0,14.55,0,21.83,0,.44-.02,.88-.04,1.32,0,.17-.12,.29-.27,.36-.47,.23-.99,.31-1.5,.4-.12,.02-.24,.03-.36,.04-2,.08-3.99,.19-5.99,.22-3.03,.05-5.97-.47-8.83-1.45-3.71-1.27-6.7-3.5-8.94-6.73-1.12-1.62-2.01-3.36-2.65-5.22-1.13-3.28-1.75-6.64-1.71-10.11,.01-.88,0-1.76,.04-2.64,.13-2.56,.53-5.08,1.37-7.52,.59-1.71,1.4-3.31,2.47-4.77,3.76-5.14,8.78-8.29,15.01-9.54,3.05-.61,6.12-.61,9.19-.19,.63,.09,1.25,.27,1.87,.41,.16,.04,.28,.17,.29,.34,.03,.4,.04,.8,.04,1.2,0,4.64,0,9.27,0,13.91,0,2.72,0,5.44,0,8.15Z"/>
  </g>
</svg>