<?xml version="1.0" encoding="UTF-8"?>
<svg id="Layer_1" data-name="Layer 1" xmlns="http://www.w3.org/2000/svg" viewBox="0 0 250 250">
  <defs>
    <style>
      .cls-1 {
        fill: #474747;
      }
    </style>
  </defs>
  <path class="cls-1" d="M207.98,.02H42.02C18.83,.02,.04,18.81,.04,42V207.96c0,23.18,18.79,41.98,41.98,41.98H207.98c23.18,0,41.98-18.79,41.98-41.98V42C249.96,18.81,231.17,.02,207.98,.02Zm-34.99,217.79h-27.23c7.49-46.64,14.98-93.28,22.47-139.91-16.57,46.64-33.13,93.28-49.7,139.91h-27.23c8.06-43.69,16.11-87.38,24.17-131.06-17.59,43.69-35.18,87.38-52.77,131.06h-26.21c9.19-41.08,18.38-82.16,27.57-123.23-9.19-20.65-18.38-41.3-27.57-61.96h27.91l51.74,47.54-25.19-47.54h28.94l48.68,40.51-23.15-40.51h27.57c16.11,10.44,32.23,20.88,48.34,31.32l-48.34,153.87Z"/>
</svg>