<?xml version="1.0" encoding="UTF-8"?>
<svg id="Layer_1" data-name="Layer 1" xmlns="http://www.w3.org/2000/svg" viewBox="0 0 250 250">
  <defs>
    <style>
      .cls-1 {
        fill: #4e4e4e;
      }

      .cls-2 {
        fill: #001e36;
      }

      .cls-3 {
        fill: #31a8ff;
      }
    </style>
  </defs>
  <path class="cls-1" d="M31.82,66.06c.11-.24,.22-.48,.33-.72,.06,.28,.03,.57,0,.85-.03,.23-.13,.44-.32,.59,0-.24,0-.48,0-.72Z"/>
  <path class="cls-1" d="M187.96,34.04c0,.05,0,.11,.01,.16-.49,.06-.98,.02-1.44-.16h1.43Z"/>
  <path class="cls-1" d="M62.56,34.19c0-.05,0-.1,.02-.15h1.25c-.41,.17-.83,.21-1.27,.15Z"/>
  <path class="cls-1" d="M218.03,63.71c.05,0,.1,0,.15,.02v.72c-.14-.23-.21-.47-.15-.74Z"/>
  <g>
    <rect class="cls-3" x="23.24" y="41.29" width="198.13" height="179.23"/>
    <g>
      <path class="cls-2" d="M250,40.82c-.23-.34-.07-.72-.12-1.08-.06-3.21-.39-6.38-1.48-9.43-3.73-10.42-10.14-18.69-19.64-24.47C222.83,2.23,216.45,.05,209.41,.15c-.63-.07-1.27,.14-1.88-.12H42.95c-.55,.26-1.13,.06-1.69,.12-3.31,.14-6.62,.25-9.83,1.31-7.28,2.4-13.61,6.25-18.87,11.87C4.98,21.44,.4,30.8,.24,42.07c-.09,.62,.19,1.3-.24,1.87V206.61c.26,.47,.23,.99,.24,1.51,.08,2.78,.15,5.56,.88,8.27,3.2,11.8,9.81,21.12,20.19,27.64,5.92,3.72,12.3,6.08,19.43,5.89H209.99c2.51-.09,5.03-.15,7.49-.75,3.88-.94,7.48-2.59,10.89-4.6,8.03-4.75,13.99-11.43,18.05-19.81,2.17-4.49,3.56-9.19,3.46-14.24,.06-.42-.13-.86,.12-1.26V40.82Zm-114.83,64.29c-.1,1.2-.17,2.39-.33,3.58-.51,3.83-1.46,7.53-3.08,11.04-1.84,4.02-4.45,7.48-7.66,10.49-3.91,3.67-8.45,6.28-13.54,7.96-3.16,1.04-6.39,1.77-9.68,2.24-3.21,.46-6.44,.7-9.68,.75-2.8,.04-5.6,.06-8.39-.1-.88-.05-1.76-.05-2.64-.05-.24,0-.48,.03-.71,.09-.1,.02-.21,.13-.24,.23-.05,.15-.06,.31-.07,.47,0,.44,0,.88,0,1.32,0,10.43,0,20.87,0,31.3,0,.36,0,.72-.02,1.08-.04,.64-.48,1.12-1.11,1.24-.16,.03-.32,.04-.48,.04-.32,0-.64,0-.96,0-5.84,0-11.67,0-17.51,0-.36,0-.72,0-1.08,0-.2,0-.4-.03-.59-.08-.42-.11-.69-.39-.78-.82-.04-.19-.05-.4-.05-.6,0-.44,0-.88,0-1.32,0-17.83,0-35.66,0-53.49s0-35.66,0-53.49c0-.44,0-.88,0-1.32,0-.2,.02-.4,.06-.6,.06-.34,.39-.67,.73-.71,.36-.03,.72-.04,1.08-.04,1.88-.01,3.76,0,5.63-.15,.12,0,.24-.01,.36-.01,3.96-.1,7.91-.19,11.87-.29,2.12-.05,4.24-.12,6.35-.14,3.12-.03,6.24-.07,9.35-.03,2.32,.03,4.63,.18,6.94,.44,4.71,.52,9.29,1.58,13.7,3.34,4.35,1.74,8.27,4.17,11.7,7.38,4.05,3.79,6.9,8.37,8.71,13.6,.98,2.84,1.63,5.77,1.96,8.76,.29,2.63,.37,5.26,.15,7.9Zm71.7,48.52c-.13,3.28-.94,6.39-2.31,9.37-1.69,3.68-4.23,6.66-7.4,9.14-1.68,1.31-3.5,2.37-5.45,3.24-3.27,1.45-6.68,2.42-10.22,2.96-2.77,.42-5.56,.64-8.36,.68-2.48,.03-4.96-.07-7.43-.29-2.43-.22-4.84-.58-7.24-1.04-2.04-.4-4.06-.86-6.04-1.52-1.4-.47-2.78-1-4.13-1.62-.29-.13-.59-.26-.85-.44-.65-.42-1-1.02-1.03-1.8,0-.28,0-.56,0-.84,0-2.76,0-5.52,0-8.28h0c0-2.84,0-5.68,0-8.52,0-.36-.03-.73,.06-1.07,.24-.92,.52-1.13,1.47-.73,.22,.09,.42,.23,.63,.35,3.55,2.06,7.33,3.56,11.3,4.57,1.78,.45,3.57,.88,5.39,1.18,3.29,.53,6.6,.74,9.92,.56,1.48-.08,2.95-.26,4.38-.66,.73-.2,1.45-.46,2.13-.81,1.71-.89,2.57-2.34,2.74-4.23,.07-.73-.13-1.43-.45-2.09-.26-.54-.62-1.02-1.03-1.47-.63-.68-1.34-1.25-2.12-1.75-.98-.62-2.01-1.15-3.06-1.64-2.24-1.06-4.53-2.01-6.85-2.88-4.66-1.76-9.04-4.05-13.17-6.84-3.51-2.37-6.29-5.41-8.4-9.07-.94-1.64-1.56-3.41-2.02-5.24-.71-2.82-.86-5.68-.57-8.57,.23-2.36,.78-4.65,1.64-6.86,1.64-4.25,4.31-7.73,7.89-10.52,2.87-2.24,6.08-3.83,9.54-4.92,2.52-.8,5.12-1.25,7.75-1.52,3.59-.37,7.19-.33,10.78-.15,3.35,.17,6.69,.53,10,1.15,2.17,.41,4.27,1.04,6.32,1.85,.15,.06,.31,.1,.44,.18,.79,.45,1.44,1.01,1.47,2.02,0,.36,.07,.72,.07,1.07,0,5.24,0,10.48,0,15.71,0,.62-.09,1.19-.43,1.71-.12,.18-.28,.29-.47,.34-.56,.16-1.11,.15-1.63-.13-.14-.07-.28-.15-.43-.22-3.03-1.59-6.24-2.66-9.58-3.37-2.23-.48-4.47-.88-6.74-1.11-2.03-.2-4.07-.34-6.11-.27-1.76,.06-3.5,.34-5.19,.85-.31,.09-.61,.19-.9,.33-1.51,.71-2.42,1.9-2.78,3.53-.26,1.2-.04,2.3,.58,3.34,.27,.45,.6,.85,.96,1.22,.9,.92,1.94,1.66,3.08,2.27,1.73,.92,3.49,1.77,5.28,2.58,1.06,.48,2.13,.92,3.22,1.31,5.1,1.84,9.91,4.26,14.49,7.16,2.49,1.58,4.63,3.53,6.45,5.86,1.93,2.47,3.18,5.25,3.88,8.3,.37,1.6,.56,3.23,.58,4.87,0,.92,0,1.84-.04,2.76Z"/>
      <path class="cls-2" d="M79.23,102.71c0-5.36,0-10.71,0-16.07,0-.44,.02-.88,.04-1.32,0-.2,.16-.37,.37-.41,.27-.05,.55-.1,.83-.12,.4-.03,.8-.04,1.2-.04,3.08-.02,6.15-.03,9.23-.05,1.64-.01,3.28,.04,4.9,.26,2.75,.37,5.42,1.06,7.93,2.24,3.42,1.62,5.93,4.16,7.42,7.66,.92,2.16,1.42,4.41,1.42,6.76,0,1.56,0,3.12-.26,4.66-.19,1.15-.44,2.27-.84,3.37-.65,1.79-1.63,3.37-2.97,4.73-2.18,2.2-4.7,3.81-7.67,4.73-2.1,.65-4.23,1.19-6.41,1.51-1.03,.15-2.06,.28-3.1,.32-3.48,.13-6.95,.12-10.43,0-.44-.02-.87-.08-1.3-.15-.16-.03-.27-.16-.31-.33-.03-.16-.04-.32-.05-.48,0-.36,0-.72,0-1.08,0-5.4,0-10.79,0-16.19Z"/>
    </g>
  </g>
</svg>