<?xml version="1.0" encoding="UTF-8"?>
<svg id="Layer_1" data-name="Layer 1" xmlns="http://www.w3.org/2000/svg" viewBox="0 0 250 250">
  <defs>
    <style>
      .cls-1 {
        fill: #797979;
      }

      .cls-2 {
        fill: #f5f5f5;
      }

      .cls-3 {
        fill: #a0a0a0;
      }

      .cls-4 {
        fill: #e0e0e0;
      }

      .cls-5 {
        fill: #a4a4a4;
      }

      .cls-6 {
        fill: #adadad;
      }

      .cls-7 {
        fill: #d5d5d5;
      }

      .cls-8 {
        fill: #c6c6c6;
      }

      .cls-9 {
        fill: #fcfcfc;
      }
    </style>
  </defs>
  <path d="M40.67,77.71c-.05-1.74-.06-3.53-.15-5.31-.29-5.47-1.23-10.82-3.14-15.98-1.15-3.1-2.57-6.06-4.3-8.88-1.02-1.66-2.05-3.32-3.08-4.98-.11-.17-.21-.35-.3-.53-.26-.54-.12-1.04,.4-1.37,.31-.19,.64-.36,.97-.51,1.29-.59,2.59-1.19,3.89-1.76,4.32-1.89,8.71-3.62,13.22-5.03,3.38-1.05,6.81-1.92,10.3-2.53,3.13-.54,6.28-.87,9.47-.85,.69,0,1.38,.03,2.05,.22,1.66,.47,2.88,1.48,3.63,3.03,.21,.44,.38,.9,.5,1.37,.59,2.37,1.22,4.72,1.66,7.12,.34,1.84,.58,3.7,.6,5.57,.02,1.87,.04,3.74,0,5.61-.04,2.07-.19,4.14-.38,6.21-.19,2.07-.45,4.12-.77,6.17-.74,4.71-1.86,9.33-3.34,13.86-2.16,6.6-5.04,12.87-8.61,18.82-2.11,3.52-4.25,7.03-6.37,10.55-.23,.38-.45,.78-.66,1.17-.13,.24-.08,.45,.13,.66,.12,.11,.24,.22,.36,.33,2.96,2.61,5.92,5.22,8.88,7.83,.21,.19,.44,.36,.68,.52,.05,.04,.17,.03,.23-.01,.13-.09,.26-.19,.37-.31,2.66-3.03,5.2-6.15,7.47-9.49,3.72-5.47,6.79-11.28,9.34-17.38,2.24-5.33,4.06-10.81,5.62-16.37,.87-3.13,1.69-6.28,2.32-9.48,.46-2.35,.85-4.72,1.17-7.1,.26-1.94,.47-3.88,.61-5.82,.15-2.07,.31-4.14,.32-6.21,0-1.63,0-3.25,.02-4.88,0-.61,.02-1.22,.06-1.83,.01-.19,.11-.38,.18-.57,.03-.09,.23-.17,.31-.12,.31,.18,.64,.35,.93,.57,.39,.29,.75,.62,1.12,.94,6.55,5.61,12.41,11.85,17.44,18.85,6.76,9.41,11.66,19.71,14.82,30.86,.13,.47,.26,.94,.39,1.41,.37,1.34,.57,2.7,.6,4.09,.03,1.3,.03,2.6,.08,3.9,.07,1.63-.58,2.92-1.79,3.96-.34,.29-.71,.54-1.07,.81-6.24,4.66-12.92,8.62-19.78,12.27-9.03,4.8-18.39,8.86-28.04,12.21-.54,.19-1.07,.38-1.6,.58-.19,.07-.37,.17-.55,.27-.12,.06-.19,.29-.13,.43,.17,.37,.33,.74,.51,1.11,1.4,2.89,2.82,5.77,4.21,8.67,1.11,2.31,2.16,4.65,3.07,7.04,1.31,3.43,2.34,6.93,3.02,10.54,.38,2.04,.63,4.1,.75,6.17,.08,1.39-.04,2.77-.22,4.14-.32,2.47-1.01,4.85-2.05,7.12-.22,.48-.49,.93-.75,1.39-.06,.1-.17,.17-.26,.25-.03,.02-.07,.01-.11,.02-.1,.02-.17-.03-.18-.13-.06-.56-.12-1.13-.16-1.7-.16-2.38-.81-4.64-1.75-6.82-.84-1.95-1.91-3.77-3.07-5.54-1.43-2.18-2.93-4.3-4.49-6.39-3.65-4.9-7.61-9.54-11.99-13.81-4-3.9-8.29-7.44-12.94-10.55-2.95-1.97-6.03-3.7-9.29-5.09-3.31-1.41-6.73-2.43-10.28-2.98-2.09-.32-4.19-.55-6.31-.57-1.3-.01-2.6-.02-3.9,0-2.2,.05-4.38,.28-6.55,.63-1.64,.27-3.28,.58-4.92,.91-.85,.17-1.69,.22-2.55,.17-1.54-.08-2.82-.7-3.83-1.87-.51-.59-.9-1.25-1.23-1.95-.81-1.71-1.27-3.52-1.39-5.4-.3-4.9,.87-9.44,3.41-13.63,.91-1.51,2.03-2.85,3.37-4,.98-.84,2.09-1.41,3.36-1.64,.76-.14,1.53-.22,2.3-.24,1.1-.02,2.2,.03,3.29,.06,.53,.02,1.06,.06,1.58,.09,5.63,.31,11.14,1.31,16.5,3.08,1.2,.4,2.4,.76,3.61,1.13,.19,.06,.39,.09,.59,.14,.09,.02,.25-.09,.28-.19,.07-.23,.16-.46,.2-.7,.35-1.8,.73-3.59,.93-5.41,.09-.85,.2-1.7,.29-2.55,.29-2.79,.55-5.59,.71-8.39,.11-1.99,.13-3.98,.2-6.03Z"/>
  <path d="M162.52,213.57c.47,.39,.93,.78,1.4,1.17,.16,.13,.32,.25,.49,.36,.1,.06,.23,.07,.34-.01,.45-.36,.79-.81,1.04-1.33,.2-.42,.24-.86,.07-1.3-.13-.34-.28-.68-.48-.98-1.33-2.11-3.17-3.56-5.54-4.35-.51-.17-1.03-.23-1.56-.16-.46,.06-.74,.34-.79,.79,0,.04,0,.08-.01,.12-.07,.25,.17,.64-.19,.74-.3,.08-.47-.26-.67-.45-2.21-2.04-4.42-4.08-6.63-6.12-2.72-2.5-5.5-4.95-8.34-7.31-.41-.34-.83-.65-1.25-.97-.56-.15-.94-.56-1.34-.92,0,0-.04-.04-.03-.03,.02,.02,0,0,.02,.02,.02,.02,.03,.03,.05,.05,.37,.38,.9,.59,1.01,1.17,.28,.29,.55,.6,.84,.88,4.69,4.62,9.39,9.24,14.08,13.87,.41,.4,.82,.79,1.21,1.21,1.28,1.36,2.14,2.96,2.55,4.79,.25,1.13,.28,2.26-.14,3.36-.13,.34-.29,.68-.5,.97-.61,.84-1.44,1.15-2.46,.93-.48-.1-.94-.28-1.35-.54-.38-.24-.75-.48-1.12-.74-3.32-2.35-6.53-4.85-9.59-7.53-7.59-6.66-15.56-12.82-23.78-18.68-5.93-4.22-11.97-8.28-18.04-12.3-1.9-1.26-3.76-2.57-5.62-3.88-.5-.35-.96-.75-1.39-1.18-1.25-1.27-1.93-2.8-2.05-4.57-.07-1.06-.02-2.11,.18-3.16,.48-2.56,.95-5.12,1.43-7.67,.34-1.8,.6-3.61,.81-5.43,.21-1.78,.19-3.57-.09-5.35-.2-1.28-.43-2.57-.59-3.86-.1-.84-.52-1.43-1.13-1.94-.16-.13-.33-.23-.5-.35-2.05-1.55-3.08-3.65-3.16-6.19-.06-1.68,.46-3.21,1.53-4.53,.52-.63,1.1-1.2,1.71-1.74,1.23-1.07,2.57-1.99,3.98-2.81,1.47-.87,2.99-1.65,4.53-2.39,1.43-.68,2.87-1.35,4.3-2.03,6.99-3.32,13.72-7.1,20.08-11.52,1.6-1.11,3.16-2.29,4.74-3.44,.59-.43,1.19-.86,1.78-1.28,.13-.09,.28-.17,.42-.25,.13-.07,.35-.01,.43,.12,.07,.1,.14,.2,.2,.3,.21,.39,.44,.78,.63,1.18,2.77,5.71,5.63,11.37,8.25,17.15,1.05,2.31,2.41,4.42,4.15,6.28,3.02,3.21,6.7,5.24,11,6.17,4.39,.94,8.73,.68,13.01-.64,1.4-.43,2.77-.93,4.16-1.41,1.46-.5,2.92-1.01,4.41-1.41,.68-.18,1.36-.25,2.05-.23,.2,0,.41,.03,.6,.07,.85,.17,1.32,.9,1.1,1.73-.07,.27-.17,.55-.29,.8-.76,1.62-1.5,3.25-2.38,4.81-1.08,1.92-2.3,3.74-3.72,5.42-1.58,1.88-3.38,3.51-5.4,4.91-.5,.35-.99,.71-1.47,1.08-.39,.3-.72,.66-.98,1.08-.51,.85-.5,1.7,.06,2.52,.25,.37,.58,.68,.93,.96,1.51,1.15,3.2,1.92,5.07,2.29,2.03,.4,4.05,.28,6.06-.13,2.72-.56,5.34-1.42,7.92-2.43,1.93-.76,3.83-1.6,5.7-2.48,3.75-1.77,7.5-3.55,11.13-5.56,4.38-2.42,8.63-5.05,12.8-7.82,3.02-2,6.02-4.02,9-6.07,5.6-3.85,11.34-7.48,17.08-11.1,1.32-.83,2.75-1.39,4.23-1.88,.23-.07,.48-.1,.72-.1,.49-.01,.85,.37,.81,.86-.03,.28-.08,.57-.19,.83-.98,2.37-2.04,4.7-3.4,6.88-1.85,2.97-3.92,5.79-6.12,8.51-2,2.47-4.1,4.84-6.25,7.17-1.69,1.82-3.39,3.63-5.1,5.42-2.89,3.04-5.99,5.86-9.19,8.56-3.54,2.99-7.2,5.84-10.87,8.67-6.6,5.09-13.06,10.36-19.45,15.72-2.15,1.8-4.21,3.71-6.31,5.57-.33,.3-.68,.58-1.02,.87-.1,.11-.17,.09-.2-.06-.11-1.34-.23-2.67-.47-4-.63-3.6-1.88-6.98-3.67-10.16-1.71-3.03-3.83-5.75-6.26-8.23-2.45-2.5-5.09-4.8-7.83-6.98-1.24-.99-2.51-1.93-3.76-2.92-1.69-1.33-3.58-2.23-5.63-2.84-1.33-.39-2.68-.68-4.04-.91-1.48-.25-2.97-.5-4.46-.65-1.71-.17-3.41-.18-5.12-.05-3.05,.23-6.04,.83-8.97,1.67-.47,.14-.94,.28-1.38,.48-.52,.22-.83,.63-.92,1.2-.01,.08-.02,.16-.03,.24-.04,.64-.34,1.17-.76,1.62-.3,.33-.63,.64-.96,.93-1.74,1.53-3.48,3.06-5.23,4.58-.21,.19-.43,.37-.67,.52-.86,.54-1.76,.61-2.67,.17-.44-.21-.84-.49-1.24-.77-2.73-1.98-5.46-3.97-8.19-5.95-1.09-.79-2.17-1.57-3.26-2.37-.59-.43-1.17-.88-1.75-1.33-.45-.35-.84-.77-1.15-1.25-.56-.89-.63-1.83-.22-2.8,.21-.49,.5-.94,.85-1.33,.44-.48,.9-.94,1.37-1.39,.44-.42,.92-.8,1.38-1.21,.15-.13,.29-.28,.43-.43,.1-.11,.09-.35-.03-.44-.23-.16-.46-.34-.7-.48-1.41-.83-2.93-1.4-4.53-1.77-1.15-.27-2.31-.47-3.49-.55-.49-.03-.97-.07-1.46-.1-.1,0-.2,.19-.15,.28,.1,.17,.2,.35,.32,.52,1.27,1.79,2.02,3.79,2.38,5.95,.25,1.49,.34,2.99,.38,4.49,.06,1.95,.07,3.9,.1,5.85,0,.57-.03,1.14-.05,1.71-.02,.57-.03,1.14,.09,1.7,.22,1.06,.71,1.98,1.47,2.76,.57,.59,1.23,1.07,1.94,1.46,.5,.28,1.01,.53,1.52,.78,3.43,1.69,6.85,3.39,10.28,5.07,1.9,.93,3.77,1.91,5.6,2.97,.32,.18,.64,.35,.97,.52,.33,.17,.68,.26,1.05,.32,.63,.1,1.21-.03,1.75-.37,.49-.31,.88-.72,1.23-1.18,.5-.65,.87-1.37,1.17-2.13,.52-1.33,1.01-2.66,1.51-3.99,.27-.72,.51-1.46,.78-2.18,.96-2.55,2.36-4.81,4.31-6.72,2.36-2.31,5.16-3.78,8.38-4.48,2.87-.63,5.74-.53,8.59,.11,1.91,.43,3.76,1.04,5.55,1.84,1.72,.76,3.34,1.68,4.83,2.83,3.23,2.48,6.31,5.13,9.15,8.05,2.87,2.96,5.41,6.17,7.49,9.74,1.05,1.8,1.9,3.68,2.52,5.67,.73,2.39,1.1,4.84,1.05,7.33-.07,3.4-.7,6.71-1.96,9.88-1.38,3.46-3.47,6.43-6.19,8.95-1.95,1.81-4.12,3.31-6.45,4.58-.32,.17-.66,.31-1,.44-.5,.18-.97,.08-1.39-.22-.26-.19-.49-.43-.7-.68-.52-.63-1.02-1.27-1.52-1.9-.09-.07-.16-.17-.23-.25h0c-.04-.24,.04-.35,.29-.29,.07,.03,.13,.07,.18,.13,.1,.02,.17,.08,.2,.18Z"/>
  <path class="cls-7" d="M138.67,192.31c.59,.46,1.24,.86,1.72,1.46-.1,.1-.19,.19-.29,.29-.7-.48-1.24-1.14-1.84-1.73,.13-.09,.27-.1,.41-.02Z"/>
  <path class="cls-1" d="M162.14,213.26c-.1,.1-.19,.19-.29,.29-.41-.24-.67-.63-.98-.97-.05-.23,.02-.34,.27-.27,.36,.29,.75,.55,1.01,.95Z"/>
  <path class="cls-5" d="M161.13,212.31c-.09,.09-.18,.18-.27,.27-.25-.24-.5-.48-.75-.72-.05-.23,.01-.34,.27-.27,.25,.24,.5,.48,.75,.72Z"/>
  <path class="cls-6" d="M181.9,191.31c.07,0,.14,.02,.2,.06-.02,.2-.04,.4-.08,.59-.01,.05-.11,.11-.17,.13-.1,.03-.23-.13-.2-.23,.07-.18,.16-.36,.24-.54Z"/>
  <path class="cls-8" d="M160.38,211.6c-.09,.09-.18,.18-.27,.27-.34-.25-.64-.54-.71-.99h0c.38,.18,.7,.43,.99,.72Z"/>
  <path class="cls-8" d="M159.4,210.87s0,0,0,0,0,0,0,0Z"/>
  <path class="cls-1" d="M162.52,213.57c-.07-.06-.14-.12-.2-.18,.07,.06,.14,.12,.2,.18Z"/>
  <path class="cls-1" d="M161.85,213.56c.08,.08,.15,.17,.23,.25-.08-.08-.15-.17-.23-.25Z"/>
  <path class="cls-9" d="M120.86,160.31c0,.98-.73,2.19-2.31,2.16-.45,0-.89-.11-1.27-.37-.24-.16-.47-.32-.7-.48-3.03-2.11-5.99-4.33-8.92-6.58-.23-.17-.44-.36-.65-.55-.22-.19-.35-.45-.44-.72-.08-.24-.08-.48-.01-.72,.05-.15,.11-.31,.18-.45,.49-.94,2-1.73,3.13-1.38,.31,.1,.63,.16,.9,.37,.05,.04,.06,.13,.07,.2,0,.03-.04,.08-.06,.09-.47,.14-.93,.3-1.34,.57-.17,.11-.34,.22-.49,.36-.12,.11-.22,.24-.29,.38-.26,.57-.09,1.5,.36,1.93,.17,.17,.37,.32,.56,.47,2.17,1.71,4.39,3.35,6.67,4.91,.27,.18,.54,.37,.82,.52,.59,.31,1.32,.2,1.81-.25,.48-.44,.71-.99,.69-1.63-.01-.32-.1-.64-.13-.96,0-.07,.03-.18,.08-.21,.05-.03,.18-.03,.22,.01,.66,.64,1.13,1.38,1.13,2.33Z"/>
  <path class="cls-9" d="M116.19,157.45c.27-.27,.36-.62,.48-.96,.09-.24,.25-.25,.46-.06,.09,.08,.17,.17,.26,.25,.27,.27,.4,.6,.37,.98-.01,.2-.04,.4-.08,.59-.01,.07-.07,.16-.13,.19-.44,.22-.9,.38-1.37,.08-.34-.22-.66-.46-.98-.69-.09-.03-.17-.08-.22-.16h0c-.1-.08-.16-.18-.28-.22h0c-.02-.23,.06-.36,.32-.29,.08,.02,.15,.05,.21,.11,.09,.04,.18,.09,.26,.16,.08,0,.15,.02,.22,.05,.16,.1,.32,.1,.48-.02Z"/>
  <path class="cls-2" d="M112.28,155.73c-.49-.35-.99-.7-1.47-1.06-.22-.16-.26-.4-.18-.65,.04-.15,.1-.31,.17-.45,.07-.15,.2-.25,.37-.28,.48-.08,.96-.08,1.44-.01,.06,0,.14,.09,.16,.15,.02,.06,0,.16-.04,.22-.17,.22-.37,.43-.53,.66-.14,.21-.15,.46,0,.69,.11,.17,.23,.33,.35,.49,.05,.22-.01,.33-.26,.25Z"/>
  <path class="cls-9" d="M112.28,155.73c.09-.08,.17-.16,.26-.25,.71,.45,1.43,.9,2.13,1.35,.13,.08,.24,.21,.35,.32-.11,.1-.22,.2-.32,.3-.82-.45-1.69-1.07-2.42-1.73Z"/>
  <path class="cls-3" d="M138.67,192.31c-.14,0-.27,.01-.41,.02-.18-.1-.32-.25-.39-.44l.08-.09c.3,.08,.54,.26,.71,.51Z"/>
  <path class="cls-4" d="M116.19,157.45c-.15,.13-.31,.14-.48,.02,.16,0,.32-.02,.48-.02Z"/>
  <path class="cls-4" d="M115.49,157.42c-.09-.05-.17-.1-.26-.16,.09,.05,.17,.1,.26,.16Z"/>
  <path class="cls-4" d="M114.7,157.44c.09,.07,.19,.15,.28,.22-.13-.03-.22-.1-.28-.22Z"/>
  <path class="cls-4" d="M114.99,157.67c.07,.06,.15,.11,.22,.17-.07-.06-.15-.11-.22-.17Z"/>
  <path class="cls-3" d="M137.88,191.88s-.05-.06-.04-.08c.02-.07,.07-.07,.13,0,0,0-.08,.09-.08,.09Z"/>
</svg>